<svg width="361" height="281" viewBox="0 0 361 281" fill="none" xmlns="http://www.w3.org/2000/svg">
<path d="M110.018 82.2354L112.018 82.2354C112.018 81.5398 111.656 80.8942 111.063 80.5305L110.018 82.2354ZM110.018 110.508L110.018 112.508C111.122 112.508 112.018 111.613 112.018 110.508L110.018 110.508ZM63.0707 110.508C63.0707 111.613 63.9661 112.508 65.0707 112.508C66.1753 112.508 67.0707 111.613 67.0707 110.508L63.0707 110.508ZM65.0707 82.2354L64.0307 80.527C63.4346 80.89 63.0707 81.5374 63.0707 82.2354L65.0707 82.2354ZM75.4064 108.508C74.3018 108.508 73.4064 109.404 73.4064 110.508C73.4064 111.613 74.3018 112.508 75.4064 112.508L75.4064 108.508ZM87.6289 68.5029L88.6746 66.7981C88.035 66.4058 87.2298 66.4045 86.5889 66.7946L87.6289 68.5029ZM108.018 82.2354L108.018 110.508L112.018 110.508L112.018 82.2354L108.018 82.2354ZM67.0707 110.508L67.0707 82.2354L63.0707 82.2354L63.0707 110.508L67.0707 110.508ZM110.018 108.508L75.4064 108.508L75.4064 112.508L110.018 112.508L110.018 108.508ZM66.1107 83.9437L88.6689 70.2113L86.5889 66.7946L64.0307 80.527L66.1107 83.9437ZM86.5832 70.2078L108.972 83.9403L111.063 80.5305L88.6746 66.7981L86.5832 70.2078Z" fill="black"/>
<rect x="45.5039" y="47.0134" width="145" height="88" rx="10" stroke="black" stroke-width="4"/>
<path d="M113.28 186.175L115.053 185.249C115.436 185.982 115.328 186.875 114.782 187.496L113.28 186.175ZM105.018 170.348L105.018 168.348C105.763 168.348 106.447 168.762 106.791 169.422L105.018 170.348ZM68.2601 169.419C68.7733 168.441 69.9823 168.064 70.9604 168.577C71.9385 169.09 72.3154 170.299 71.8022 171.277L68.2601 169.419ZM61.7275 186.175L60.2209 187.49C59.678 186.868 59.5729 185.976 59.9565 185.245L61.7275 186.175ZM80.3767 172.348C79.2721 172.348 78.3767 171.452 78.3767 170.348C78.3767 169.243 79.2721 168.348 80.3767 168.348L80.3767 172.348ZM87.4048 215.585L88.9063 216.906C88.5258 217.338 87.9771 217.586 87.401 217.585C86.8248 217.583 86.2771 217.334 85.8982 216.9L87.4048 215.585ZM111.507 187.1L103.245 171.273L106.791 169.422L115.053 185.249L111.507 187.1ZM71.8022 171.277L63.4986 187.104L59.9565 185.245L68.2601 169.419L71.8022 171.277ZM105.018 172.348L80.3767 172.348L80.3767 168.348L105.018 168.348L105.018 172.348ZM63.2341 184.859L88.9114 214.269L85.8982 216.9L60.2209 187.49L63.2341 184.859ZM85.9032 214.263L111.779 184.853L114.782 187.496L88.9063 216.906L85.9032 214.263Z" fill="black"/>
<path d="M111.501 185.543H63.5167" stroke="black" stroke-width="4" stroke-linecap="round" stroke-linejoin="round"/>
<rect x="45.5039" y="148.013" width="145" height="88" rx="10" stroke="black" stroke-width="4"/>
<path d="M256.659 85.5222C257.764 85.5222 258.659 84.6268 258.659 83.5222C258.659 82.4176 257.764 81.5222 256.659 81.5222L256.659 85.5222ZM241.474 81.5222C240.37 81.5222 239.474 82.4176 239.474 83.5222C239.474 84.6268 240.37 85.5222 241.474 85.5222L241.474 81.5222ZM256.659 81.5222L241.474 81.5222L241.474 85.5222L256.659 85.5222L256.659 81.5222Z" fill="black"/>
<path d="M256.659 92.5535C257.764 92.5535 258.659 91.658 258.659 90.5535C258.659 89.4489 257.764 88.5535 256.659 88.5535V92.5535ZM241.474 88.5535C240.37 88.5535 239.474 89.4489 239.474 90.5535C239.474 91.658 240.37 92.5535 241.474 92.5535V88.5535ZM256.659 88.5535H241.474V92.5535H256.659V88.5535Z" fill="black"/>
<path d="M226.958 113.568C226.958 114.673 227.854 115.568 228.958 115.568C230.063 115.568 230.958 114.673 230.958 113.568L226.958 113.568ZM228.958 68.5347L228.958 66.5347C227.854 66.5347 226.958 67.4301 226.958 68.5347L228.958 68.5347ZM267.973 113.568L267.973 115.568C269.078 115.568 269.973 114.673 269.973 113.568L267.973 113.568ZM238.379 111.568C237.275 111.568 236.379 112.464 236.379 113.568C236.379 114.673 237.275 115.568 238.379 115.568L238.379 111.568ZM259.193 68.5347L260.678 67.1954C260.299 66.7748 259.759 66.5347 259.193 66.5347L259.193 68.5347ZM267.973 78.2737L269.973 78.2737C269.973 77.779 269.79 77.3019 269.459 76.9345L267.973 78.2737ZM230.958 113.568L230.958 68.5347L226.958 68.5347L226.958 113.568L230.958 113.568ZM267.973 111.568L238.379 111.568L238.379 115.568L267.973 115.568L267.973 111.568ZM228.958 70.5347L259.193 70.5347L259.193 66.5347L228.958 66.5347L228.958 70.5347ZM265.973 78.2737L265.973 113.568L269.973 113.568L269.973 78.2737L265.973 78.2737ZM257.707 69.8739L266.488 79.6129L269.459 76.9345L260.678 67.1954L257.707 69.8739Z" fill="black"/>
<rect x="206.504" y="47.0134" width="145" height="88" rx="10" stroke="black" stroke-width="4"/>
<path d="M245.92 173.563L264.006 173.563C267.872 173.563 271.006 176.698 271.006 180.563L271.006 203.535C271.006 207.401 267.872 210.535 264.006 210.535L232.919 210.535C229.053 210.535 225.919 207.401 225.919 203.535L225.919 190.736L225.919 180.563C225.919 176.697 229.053 173.563 232.919 173.563L235.504 173.563" stroke="black" stroke-width="4" stroke-linecap="round" stroke-linejoin="round"/>
<path d="M270.413 187.485C271.518 187.485 272.413 186.59 272.413 185.485C272.413 184.381 271.518 183.485 270.413 183.485V187.485ZM227.162 183.485C226.057 183.485 225.162 184.381 225.162 185.485C225.162 186.59 226.057 187.485 227.162 187.485V183.485ZM270.413 183.485H227.162V187.485H270.413V183.485Z" fill="black"/>
<rect x="206.504" y="148.013" width="145" height="88" rx="10" stroke="black" stroke-width="4"/>
<path d="M29.5039 29.4612C36.443 29.4612 40.0039 23.6403 40.0039 14.0134C40.0039 23.6403 43.5648 29.4612 50.5039 29.4612C43.6561 29.4612 40.0039 33.2672 40.0039 44.0134C40.0039 33.2672 36.3517 29.4612 29.5039 29.4612Z" stroke="black" stroke-width="4" stroke-linecap="round" stroke-linejoin="round"/>
<path d="M3.50391 69.6701C13.7474 69.6701 19.0039 61.1328 19.0039 47.0134C19.0039 61.1328 24.2604 69.6701 34.5039 69.6701C24.3952 69.6701 19.0039 75.2522 19.0039 91.0134C19.0039 75.2522 13.6126 69.6701 3.50391 69.6701Z" fill="white" stroke="black" stroke-width="4" stroke-linecap="round" stroke-linejoin="round"/>
</svg>
