<svg width="345" height="341" viewBox="0 0 345 341" fill="none" xmlns="http://www.w3.org/2000/svg">
<path d="M216.251 285.912H109.985V292.237H216.251V285.912Z" fill="#1A1B1C" stroke="#1A1B1C" stroke-width="3" stroke-linecap="round" stroke-linejoin="round"/>
<path d="M109.716 292.232L55.6313 200.048L62.4375 198.147L109.985 284.807L109.716 292.232Z" fill="#1A1B1C" stroke="#1A1B1C" stroke-width="3" stroke-linecap="round" stroke-linejoin="round"/>
<path d="M55.5864 199.889L66.8709 145.383L73.3689 142.945L61.8242 197.782L55.5864 199.889Z" fill="#1A1B1C" stroke="#1A1B1C" stroke-width="3" stroke-linecap="round" stroke-linejoin="round"/>
<path d="M111.561 285.912L63.1768 197.692L73.6138 142.959L116.31 222.219L111.561 285.912Z" stroke="#1A1B1C" stroke-width="3" stroke-linecap="round" stroke-linejoin="round"/>
<path d="M69.5024 318.714C69.5024 318.714 89.7436 321.015 89.7436 302.358C89.7436 283.701 69.5024 286.002 69.5024 286.002" stroke="#1A1B1C" stroke-width="3" stroke-linecap="round" stroke-linejoin="round"/>
<path d="M69.5022 285.912V323.993C69.5022 323.993 66.5039 339.045 47.3441 339.045C28.1842 339.045 25.2246 323.993 25.2246 323.993V285.912C25.2246 285.912 25.2246 308.495 47.3828 308.495C69.5409 308.495 69.5022 285.912 69.5022 285.912Z" fill="#1A1B1C" stroke="#1A1B1C" stroke-width="3" stroke-linecap="round" stroke-linejoin="round"/>
<path d="M41.6707 277.055C36.8904 275.329 34.344 269.978 33.8707 264.93C33.3975 259.882 34.4766 254.824 34.486 249.748C34.4955 244.671 33.123 239.151 29.0147 236.16C26.175 234.094 22.5495 233.584 19.1607 232.65C12.7944 230.871 7.02432 227.419 2.45337 222.657" stroke="#1A1B1C" stroke-width="3" stroke-linecap="round" stroke-linejoin="round"/>
<path d="M55.5864 277.056C54.9092 273.48 51.1284 271.726 48.6925 269.125C47.3674 267.683 46.4048 265.919 45.891 263.991C45.3772 262.064 45.3283 260.032 45.7487 258.08" stroke="#1A1B1C" stroke-width="3" stroke-linecap="round" stroke-linejoin="round"/>
<path d="M25.2246 285.912H69.5022" stroke="#1A1B1C" stroke-width="3" stroke-linecap="round" stroke-linejoin="round"/>
<path d="M116.31 222.657H205.86L216.251 285.911" stroke="#1A1B1C" stroke-width="3" stroke-linecap="round" stroke-linejoin="round"/>
<path d="M232.461 172.155C207.354 177.692 177.399 186.315 157.749 195.386C146.718 131.802 125.401 87.194 125.401 87.194C149.52 77.0272 174.542 69.2467 200.114 63.9628C200.114 63.9628 229.672 125.742 232.461 172.155Z" stroke="#1A1B1C" stroke-width="3" stroke-linecap="round" stroke-linejoin="round"/>
<path d="M281.701 155.266C256.475 150.301 225.571 146.225 203.933 146.68C219.25 83.9911 217.552 34.5802 217.552 34.5802C243.724 34.9072 269.77 37.7827 295.321 43.1662C295.321 43.1662 297.706 111.611 281.701 155.266Z" fill="#ebe8e1" stroke="#1A1B1C" stroke-width="3" stroke-linecap="round" stroke-linejoin="round"/>
<path d="M122.635 274.526H177.034L172.446 231.514H124.532L122.635 274.526Z" stroke="#1A1B1C" stroke-width="3" stroke-linecap="round" stroke-linejoin="round"/>
<path d="M137.816 231.514V274.526" stroke="#1A1B1C" stroke-width="3" stroke-linecap="round" stroke-linejoin="round"/>
<path d="M164.383 273.262L161.853 232.779" stroke="#1A1B1C" stroke-width="3" stroke-linecap="round" stroke-linejoin="round"/>
<path d="M151.732 273.261L150.467 231.514" stroke="#1A1B1C" stroke-width="3" stroke-linecap="round" stroke-linejoin="round"/>
<path d="M123.531 264.405L175.769 264.405" stroke="#1A1B1C" stroke-width="3" stroke-linecap="round" stroke-linejoin="round"/>
<path d="M124.042 253.021L163.118 253.021" stroke="#1A1B1C" stroke-width="3" stroke-linecap="round" stroke-linejoin="round"/>
<path d="M125.166 241.634H173.238" stroke="#1A1B1C" stroke-width="3" stroke-linecap="round" stroke-linejoin="round"/>
</svg>
