<svg width="378" height="477" viewBox="0 0 378 477" fill="none" xmlns="http://www.w3.org/2000/svg">
<path d="M0.935547 18.4199C0.935547 12.8971 5.4127 8.41992 10.9355 8.41992H367.118C372.641 8.41992 377.118 12.8971 377.118 18.4199V462.173C377.118 469.905 370.85 476.173 363.118 476.173H10.9355C5.4127 476.173 0.935547 471.696 0.935547 466.173V18.4199Z" fill="white"/>
<path d="M0.935547 13.6484C0.935547 8.12559 5.4127 3.64844 10.9355 3.64844H362.172C367.695 3.64844 372.172 8.12559 372.172 13.6484V457.401C372.172 465.133 365.904 471.401 358.172 471.401H5.93555C3.17413 471.401 0.935547 469.163 0.935547 466.401V13.6484Z" fill="#1A1B1C"/>
<path d="M0.935547 12.2422C0.935547 5.61476 6.30813 0.242188 12.9355 0.242188H369.088V455.995C369.088 462.623 363.715 467.995 357.088 467.995H0.935547V12.2422Z" fill="#EFF2BA"/>
<path d="M41.0712 415.969V430.921H43.0032V424.999H46.1952C49.6392 424.999 51.4242 423.214 51.4242 420.484C51.4242 417.754 49.6392 415.969 46.1952 415.969H41.0712ZM43.0032 417.649H46.0482C48.3162 417.649 49.4292 418.72 49.4292 420.484C49.4292 422.248 48.3162 423.319 46.0482 423.319H43.0032V417.649ZM54.0116 415.969V430.921H58.5686C63.5246 430.921 66.3176 428.233 66.3176 423.445C66.3176 418.657 63.5246 415.969 58.5686 415.969H54.0116ZM55.9436 417.691H58.5476C62.2856 417.691 64.2806 419.707 64.2806 423.445C64.2806 427.183 62.2856 429.199 58.5476 429.199H55.9436V417.691ZM78.5534 417.691V415.969H69.1874V430.921H71.1194V424.516H78.0914V422.794H71.1194V417.691H78.5534Z" fill="#00534F"/>
<path d="M49.6814 163.097C47.0294 163.097 44.5644 162.655 42.2864 161.771C40.0424 160.853 38.1384 159.544 36.5744 157.844L40.8584 153.662C41.6064 155.906 42.7964 157.708 44.4284 159.068C46.0944 160.394 47.8964 161.057 49.8344 161.057C52.1464 161.057 53.9144 160.462 55.1384 159.272C56.3964 158.048 57.0254 156.518 57.0254 154.682C57.0254 153.254 56.6344 152.064 55.8524 151.112C55.0704 150.16 54.1014 149.378 52.9454 148.766C51.7894 148.154 50.2254 147.474 48.2534 146.726C46.0434 145.876 44.2584 145.077 42.8984 144.329C41.5384 143.581 40.3824 142.578 39.4304 141.32C38.4784 140.062 38.0024 138.481 38.0024 136.577C38.0024 134.843 38.4274 133.313 39.2774 131.987C40.1614 130.627 41.4534 129.556 43.1534 128.774C44.8534 127.992 46.8934 127.601 49.2734 127.601C51.7214 127.601 53.9654 128.06 56.0054 128.978C58.0794 129.896 59.6604 131.086 60.7484 132.548L56.3114 135.863C55.6994 133.959 54.6964 132.446 53.3024 131.324C51.9084 130.202 50.3614 129.641 48.6614 129.641C46.6214 129.641 45.0234 130.134 43.8674 131.12C42.7114 132.106 42.1334 133.381 42.1334 134.945C42.1334 136.271 42.5244 137.41 43.3064 138.362C44.1224 139.28 45.1084 140.045 46.2644 140.657C47.4204 141.269 49.0014 141.983 51.0074 142.799C53.3194 143.717 55.1554 144.55 56.5154 145.298C57.9094 146.046 59.0824 147.049 60.0344 148.307C61.0204 149.565 61.5134 151.112 61.5134 152.948C61.5134 154.954 60.9864 156.722 59.9324 158.252C58.8784 159.782 57.4504 160.972 55.6484 161.822C53.8464 162.672 51.8574 163.097 49.6814 163.097ZM63.2565 136.781H67.6935V131.579L71.0085 129.59H71.9265V136.781H78.7095V138.566H71.9265V155.6C71.9265 157.3 72.2665 158.541 72.9465 159.323C73.6605 160.071 74.6125 160.445 75.8025 160.445C76.4825 160.445 77.0605 160.343 77.5365 160.139C78.0465 159.901 78.5905 159.561 79.1685 159.119L79.6785 159.986C78.6585 160.938 77.6895 161.703 76.7715 162.281C75.8875 162.825 74.8675 163.097 73.7115 163.097C71.7735 163.097 70.2775 162.468 69.2235 161.21C68.2035 159.952 67.6935 158.065 67.6935 155.549V138.566H63.2565V136.781ZM92.4632 136.067C95.3532 136.067 97.5972 136.951 99.1952 138.719C100.827 140.487 101.643 142.935 101.643 146.063V156.518C101.643 157.674 101.864 158.524 102.306 159.068C102.748 159.578 103.632 159.833 104.958 159.833H105.519V160.955L98.2772 163.097H97.3592V157.334C96.5092 159.238 95.3532 160.683 93.8912 161.669C92.4632 162.621 90.8822 163.097 89.1482 163.097C87.1082 163.097 85.4252 162.468 84.0992 161.21C82.8072 159.952 82.1612 158.371 82.1612 156.467C82.1612 154.121 83.0622 152.285 84.8642 150.959C86.7002 149.633 89.6922 148.494 93.8402 147.542L97.3592 146.726V145.91C97.3592 143.428 96.7982 141.473 95.6762 140.045C94.5882 138.583 93.0922 137.852 91.1882 137.852C89.7602 137.852 88.6042 138.294 87.7202 139.178C86.8362 140.028 86.3942 141.116 86.3942 142.442C86.3942 143.292 86.6492 144.227 87.1592 145.247L83.1302 146.726C82.4502 145.74 82.1102 144.754 82.1102 143.768C82.1102 142.408 82.5862 141.15 83.5382 139.994C84.4902 138.804 85.7482 137.852 87.3122 137.138C88.9102 136.424 90.6272 136.067 92.4632 136.067ZM86.7002 155.753C86.7002 157.113 87.0912 158.218 87.8732 159.068C88.6552 159.884 89.6922 160.292 90.9842 160.292C92.2422 160.292 93.4322 159.901 94.5542 159.119C95.6762 158.337 96.6112 157.249 97.3592 155.855V148.46L94.2992 149.174C91.4772 149.854 89.5052 150.687 88.3832 151.673C87.2612 152.659 86.7002 154.019 86.7002 155.753ZM106.089 136.781H110.526V131.579L113.841 129.59H114.759V136.781H121.542V138.566H114.759V155.6C114.759 157.3 115.099 158.541 115.779 159.323C116.493 160.071 117.445 160.445 118.635 160.445C119.315 160.445 119.893 160.343 120.369 160.139C120.879 159.901 121.423 159.561 122.001 159.119L122.511 159.986C121.491 160.938 120.522 161.703 119.604 162.281C118.72 162.825 117.7 163.097 116.544 163.097C114.606 163.097 113.11 162.468 112.056 161.21C111.036 159.952 110.526 158.065 110.526 155.549V138.566H106.089V136.781ZM136.225 136.067C138.333 136.067 140.118 136.628 141.58 137.75C143.042 138.838 144.13 140.3 144.844 142.136C145.592 143.972 145.966 146.012 145.966 148.256H128.371C128.473 151.69 129.323 154.427 130.921 156.467C132.519 158.473 134.627 159.476 137.245 159.476C140.271 159.476 142.821 158.014 144.895 155.09L145.813 155.498C145.133 157.708 143.858 159.527 141.988 160.955C140.152 162.383 137.976 163.097 135.46 163.097C133.182 163.097 131.176 162.519 129.442 161.363C127.742 160.207 126.416 158.643 125.464 156.671C124.546 154.699 124.087 152.557 124.087 150.245C124.087 147.355 124.597 144.839 125.617 142.697C126.671 140.555 128.116 138.923 129.952 137.801C131.788 136.645 133.879 136.067 136.225 136.067ZM141.325 146.42C140.985 140.776 138.996 137.954 135.358 137.954C133.284 137.954 131.652 138.719 130.462 140.249C129.306 141.745 128.626 143.802 128.422 146.42H141.325ZM48.6104 223.097C46.2984 223.097 44.2414 222.553 42.4394 221.465C40.6714 220.343 39.2944 218.796 38.3084 216.824C37.3224 214.852 36.8294 212.625 36.8294 210.143C36.8294 207.389 37.3734 204.941 38.4614 202.799C39.5494 200.657 41.0114 199.008 42.8474 197.852C44.6834 196.662 46.7064 196.067 48.9164 196.067C51.2624 196.067 53.3364 196.628 55.1384 197.75C56.9404 198.872 58.3344 200.419 59.3204 202.391C60.3064 204.363 60.7994 206.607 60.7994 209.123C60.7994 211.843 60.2554 214.274 59.1674 216.416C58.0794 218.524 56.6004 220.173 54.7304 221.363C52.8604 222.519 50.8204 223.097 48.6104 223.097ZM41.4194 208.256C41.4194 210.194 41.6914 212.149 42.2354 214.121C42.7794 216.093 43.6464 217.742 44.8364 219.068C46.0604 220.394 47.5734 221.057 49.3754 221.057C51.4494 221.057 53.1154 220.105 54.3734 218.201C55.6314 216.297 56.2604 213.832 56.2604 210.806C56.2604 208.868 55.9714 206.93 55.3934 204.992C54.8494 203.02 53.9824 201.371 52.7924 200.045C51.6024 198.719 50.1064 198.056 48.3044 198.056C46.2304 198.056 44.5644 199.008 43.3064 200.912C42.0484 202.782 41.4194 205.23 41.4194 208.256ZM63.8271 221.261C65.0171 221.057 65.9011 220.751 66.4791 220.343C67.0911 219.901 67.3971 219.17 67.3971 218.15V198.566H63.1641V196.781H67.3971V194.078C67.3971 191.018 68.2641 188.672 69.9981 187.04C71.7661 185.408 73.9761 184.592 76.6281 184.592C78.5661 184.592 80.2661 184.966 81.7281 185.714C83.1901 186.428 84.1761 187.397 84.6861 188.621L79.9941 190.559C79.6881 189.199 79.2121 188.179 78.5661 187.499C77.9541 186.785 77.1381 186.428 76.1181 186.428C74.7241 186.428 73.6361 186.887 72.8541 187.805C72.1061 188.723 71.7321 190.27 71.7321 192.446V196.781H79.2291V198.566H71.7321V217.997C71.7321 219.153 72.1061 219.935 72.8541 220.343C73.6021 220.717 74.9111 221.023 76.7811 221.261V222.383H63.8271V221.261ZM120.391 196.22H119.269C118.759 194.622 118.283 193.415 117.841 192.599C117.399 191.783 116.804 191.188 116.056 190.814C115.342 190.406 114.339 190.202 113.047 190.202H102.235V203.972H108.814C110.174 203.972 111.126 203.615 111.67 202.901C112.214 202.187 112.52 200.997 112.588 199.331H113.761V210.5H112.588C112.52 208.834 112.214 207.644 111.67 206.93C111.126 206.216 110.174 205.859 108.814 205.859H102.235V217.538C102.235 218.796 102.66 219.612 103.51 219.986C104.394 220.326 105.737 220.496 107.539 220.496H113.506C114.764 220.496 115.75 220.309 116.464 219.935C117.212 219.527 117.807 218.915 118.249 218.099C118.691 217.249 119.167 216.025 119.677 214.427H120.799L120.289 222.383H93.0043V221.261C94.7043 221.125 95.8943 220.802 96.5743 220.292C97.2543 219.748 97.5943 218.779 97.5943 217.385V193.364C97.5943 191.936 97.2543 190.95 96.5743 190.406C95.8943 189.862 94.7043 189.539 93.0043 189.437V188.315H119.83L120.391 196.22ZM133.082 223.097C130.974 223.097 129.002 222.655 127.166 221.771C125.33 220.887 123.902 219.663 122.882 218.099L126.809 215.396C127.387 217.232 128.271 218.677 129.461 219.731C130.685 220.785 132.045 221.312 133.541 221.312C135.071 221.312 136.346 220.887 137.366 220.037C138.386 219.153 138.896 218.082 138.896 216.824C138.896 215.736 138.556 214.784 137.876 213.968C137.23 213.152 136.329 212.523 135.173 212.081L130.226 210.194C128.288 209.446 126.758 208.545 125.636 207.491C124.514 206.437 123.953 205.043 123.953 203.309C123.953 201.099 124.752 199.348 126.35 198.056C127.982 196.73 130.141 196.067 132.827 196.067C135.343 196.067 137.383 196.492 138.947 197.342C140.511 198.158 141.65 199.093 142.364 200.147L138.59 202.748C138.046 201.218 137.247 200.011 136.193 199.127C135.139 198.243 133.915 197.801 132.521 197.801C130.991 197.801 129.784 198.175 128.9 198.923C128.016 199.637 127.574 200.606 127.574 201.83C127.574 202.918 127.931 203.785 128.645 204.431C129.359 205.043 130.379 205.621 131.705 206.165L136.805 208.103C138.573 208.783 139.967 209.684 140.987 210.806C142.007 211.928 142.517 213.39 142.517 215.192C142.517 216.654 142.126 217.997 141.344 219.221C140.596 220.411 139.491 221.363 138.029 222.077C136.601 222.757 134.952 223.097 133.082 223.097ZM144.289 196.781H148.726V191.579L152.041 189.59H152.959V196.781H159.742V198.566H152.959V215.6C152.959 217.3 153.299 218.541 153.979 219.323C154.693 220.071 155.645 220.445 156.835 220.445C157.515 220.445 158.093 220.343 158.569 220.139C159.079 219.901 159.623 219.561 160.201 219.119L160.711 219.986C159.691 220.938 158.722 221.703 157.804 222.281C156.92 222.825 155.9 223.097 154.744 223.097C152.806 223.097 151.31 222.468 150.256 221.21C149.236 219.952 148.726 218.065 148.726 215.549V198.566H144.289V196.781ZM173.495 196.067C176.385 196.067 178.629 196.951 180.227 198.719C181.859 200.487 182.675 202.935 182.675 206.063V216.518C182.675 217.674 182.896 218.524 183.338 219.068C183.78 219.578 184.664 219.833 185.99 219.833H186.551V220.955L179.309 223.097H178.391V217.334C177.541 219.238 176.385 220.683 174.923 221.669C173.495 222.621 171.914 223.097 170.18 223.097C168.14 223.097 166.457 222.468 165.131 221.21C163.839 219.952 163.193 218.371 163.193 216.467C163.193 214.121 164.094 212.285 165.896 210.959C167.732 209.633 170.724 208.494 174.872 207.542L178.391 206.726V205.91C178.391 203.428 177.83 201.473 176.708 200.045C175.62 198.583 174.124 197.852 172.22 197.852C170.792 197.852 169.636 198.294 168.752 199.178C167.868 200.028 167.426 201.116 167.426 202.442C167.426 203.292 167.681 204.227 168.191 205.247L164.162 206.726C163.482 205.74 163.142 204.754 163.142 203.768C163.142 202.408 163.618 201.15 164.57 199.994C165.522 198.804 166.78 197.852 168.344 197.138C169.942 196.424 171.659 196.067 173.495 196.067ZM167.732 215.753C167.732 217.113 168.123 218.218 168.905 219.068C169.687 219.884 170.724 220.292 172.016 220.292C173.274 220.292 174.464 219.901 175.586 219.119C176.708 218.337 177.643 217.249 178.391 215.855V208.46L175.331 209.174C172.509 209.854 170.537 210.687 169.415 211.673C168.293 212.659 167.732 214.019 167.732 215.753ZM187.121 196.781H191.558V191.579L194.873 189.59H195.791V196.781H202.574V198.566H195.791V215.6C195.791 217.3 196.131 218.541 196.811 219.323C197.525 220.071 198.477 220.445 199.667 220.445C200.347 220.445 200.925 220.343 201.401 220.139C201.911 219.901 202.455 219.561 203.033 219.119L203.543 219.986C202.523 220.938 201.554 221.703 200.636 222.281C199.752 222.825 198.732 223.097 197.576 223.097C195.638 223.097 194.142 222.468 193.088 221.21C192.068 219.952 191.558 218.065 191.558 215.549V198.566H187.121V196.781ZM217.257 196.067C219.365 196.067 221.15 196.628 222.612 197.75C224.074 198.838 225.162 200.3 225.876 202.136C226.624 203.972 226.998 206.012 226.998 208.256H209.403C209.505 211.69 210.355 214.427 211.953 216.467C213.551 218.473 215.659 219.476 218.277 219.476C221.303 219.476 223.853 218.014 225.927 215.09L226.845 215.498C226.165 217.708 224.89 219.527 223.02 220.955C221.184 222.383 219.008 223.097 216.492 223.097C214.214 223.097 212.208 222.519 210.474 221.363C208.774 220.207 207.448 218.643 206.496 216.671C205.578 214.699 205.119 212.557 205.119 210.245C205.119 207.355 205.629 204.839 206.649 202.697C207.703 200.555 209.148 198.923 210.984 197.801C212.82 196.645 214.911 196.067 217.257 196.067ZM222.357 206.42C222.017 200.776 220.028 197.954 216.39 197.954C214.316 197.954 212.684 198.719 211.494 200.249C210.338 201.745 209.658 203.802 209.454 206.42H222.357ZM51.2624 248.315C55.2064 248.315 58.3344 249.114 60.6464 250.712C62.9924 252.31 64.1654 254.69 64.1654 257.852C64.1654 261.014 62.9924 263.394 60.6464 264.992C58.3344 266.59 55.2064 267.389 51.2624 267.389H46.1624V277.334C46.1624 278.762 46.5194 279.748 47.2334 280.292C47.9814 280.802 49.3074 281.125 51.2114 281.261V282.383H36.6254V281.261C38.4954 281.125 39.7704 280.768 40.4504 280.19C41.1644 279.578 41.5214 278.643 41.5214 277.385V253.364C41.5214 252.038 41.1644 251.086 40.4504 250.508C39.7704 249.896 38.4954 249.539 36.6254 249.437V248.315H51.2624ZM49.9874 265.502C52.9794 265.502 55.2404 264.822 56.7704 263.462C58.3004 262.102 59.0654 260.232 59.0654 257.852C59.0654 255.472 58.3004 253.602 56.7704 252.242C55.2404 250.882 52.9794 250.202 49.9874 250.202H46.1624V265.502H49.9874ZM74.0159 278.15C74.0159 279.17 74.3049 279.901 74.8829 280.343C75.4949 280.751 76.4129 281.057 77.6369 281.261V282.383H66.0599V281.261C67.2839 281.057 68.2019 280.751 68.8139 280.343C69.4259 279.901 69.7319 279.17 69.7319 278.15V252.65C69.7319 251.596 69.4939 250.814 69.0179 250.304C68.5759 249.76 67.7769 249.454 66.6209 249.386L66.0599 249.335V248.315L73.0979 246.275H74.0159V278.15ZM91.2181 256.067C94.1081 256.067 96.3521 256.951 97.9501 258.719C99.5821 260.487 100.398 262.935 100.398 266.063V276.518C100.398 277.674 100.619 278.524 101.061 279.068C101.503 279.578 102.387 279.833 103.713 279.833H104.274V280.955L97.0321 283.097H96.1141V277.334C95.2641 279.238 94.1081 280.683 92.6461 281.669C91.2181 282.621 89.6371 283.097 87.9031 283.097C85.8631 283.097 84.1801 282.468 82.8541 281.21C81.5621 279.952 80.9161 278.371 80.9161 276.467C80.9161 274.121 81.8171 272.285 83.6191 270.959C85.4551 269.633 88.4471 268.494 92.5951 267.542L96.1141 266.726V265.91C96.1141 263.428 95.5531 261.473 94.4311 260.045C93.3431 258.583 91.8471 257.852 89.9431 257.852C88.5151 257.852 87.3591 258.294 86.4751 259.178C85.5911 260.028 85.1491 261.116 85.1491 262.442C85.1491 263.292 85.4041 264.227 85.9141 265.247L81.8851 266.726C81.2051 265.74 80.8651 264.754 80.8651 263.768C80.8651 262.408 81.3411 261.15 82.2931 259.994C83.2451 258.804 84.5031 257.852 86.0671 257.138C87.6651 256.424 89.3821 256.067 91.2181 256.067ZM85.4551 275.753C85.4551 277.113 85.8461 278.218 86.6281 279.068C87.4101 279.884 88.4471 280.292 89.7391 280.292C90.9971 280.292 92.1871 279.901 93.3091 279.119C94.4311 278.337 95.3661 277.249 96.1141 275.855V268.46L93.0541 269.174C90.2321 269.854 88.2601 270.687 87.1381 271.673C86.0161 272.659 85.4551 274.019 85.4551 275.753ZM114.657 278.15C114.657 279.17 114.946 279.901 115.524 280.343C116.136 280.751 117.054 281.057 118.278 281.261V282.383H106.701V281.261C107.925 281.057 108.843 280.751 109.455 280.343C110.067 279.901 110.373 279.17 110.373 278.15V262.442C110.373 261.388 110.135 260.606 109.659 260.096C109.217 259.552 108.418 259.263 107.262 259.229L106.701 259.178V258.107L113.739 256.067H114.657V261.83C116.051 259.824 117.445 258.362 118.839 257.444C120.233 256.526 121.712 256.067 123.276 256.067C125.452 256.067 127.254 256.815 128.682 258.311C130.144 259.773 130.875 261.864 130.875 264.584V278.15C130.875 279.17 131.164 279.901 131.742 280.343C132.354 280.751 133.272 281.057 134.496 281.261V282.383H123.072V281.261C124.228 281.057 125.095 280.751 125.673 280.343C126.251 279.901 126.54 279.17 126.54 278.15V264.89C126.54 262.986 126.098 261.575 125.214 260.657C124.33 259.705 123.106 259.229 121.542 259.229C119.128 259.229 116.833 260.623 114.657 263.411V278.15ZM144.888 278.15C144.888 279.17 145.177 279.901 145.755 280.343C146.367 280.751 147.285 281.057 148.509 281.261V282.383H136.932V281.261C138.156 281.057 139.074 280.751 139.686 280.343C140.298 279.901 140.604 279.17 140.604 278.15V262.442C140.604 261.388 140.366 260.606 139.89 260.096C139.448 259.552 138.649 259.263 137.493 259.229L136.932 259.178V258.107L143.97 256.067H144.888V261.83C146.282 259.824 147.676 258.362 149.07 257.444C150.464 256.526 151.943 256.067 153.507 256.067C155.683 256.067 157.485 256.815 158.913 258.311C160.375 259.773 161.106 261.864 161.106 264.584V278.15C161.106 279.17 161.395 279.901 161.973 280.343C162.585 280.751 163.503 281.057 164.727 281.261V282.383H153.303V281.261C154.459 281.057 155.326 280.751 155.904 280.343C156.482 279.901 156.771 279.17 156.771 278.15V264.89C156.771 262.986 156.329 261.575 155.445 260.657C154.561 259.705 153.337 259.229 151.773 259.229C149.359 259.229 147.064 260.623 144.888 263.411V278.15ZM175.119 278.15C175.119 279.17 175.408 279.901 175.986 280.343C176.598 280.751 177.516 281.057 178.74 281.261V282.383H167.163V281.261C168.387 281.057 169.305 280.751 169.917 280.343C170.529 279.901 170.835 279.17 170.835 278.15V262.442C170.835 261.388 170.597 260.606 170.121 260.096C169.679 259.552 168.88 259.263 167.724 259.229L167.163 259.178V258.107L174.201 256.067H175.119V278.15ZM173.028 252.191C172.11 252.191 171.345 251.902 170.733 251.324C170.155 250.712 169.866 249.964 169.866 249.08C169.866 248.196 170.155 247.465 170.733 246.887C171.345 246.309 172.11 246.02 173.028 246.02C173.912 246.02 174.643 246.309 175.221 246.887C175.799 247.465 176.088 248.196 176.088 249.08C176.088 249.964 175.799 250.712 175.221 251.324C174.643 251.902 173.912 252.191 173.028 252.191ZM189.264 278.15C189.264 279.17 189.553 279.901 190.131 280.343C190.743 280.751 191.661 281.057 192.885 281.261V282.383H181.308V281.261C182.532 281.057 183.45 280.751 184.062 280.343C184.674 279.901 184.98 279.17 184.98 278.15V262.442C184.98 261.388 184.742 260.606 184.266 260.096C183.824 259.552 183.025 259.263 181.869 259.229L181.308 259.178V258.107L188.346 256.067H189.264V261.83C190.658 259.824 192.052 258.362 193.446 257.444C194.84 256.526 196.319 256.067 197.883 256.067C200.059 256.067 201.861 256.815 203.289 258.311C204.751 259.773 205.482 261.864 205.482 264.584V278.15C205.482 279.17 205.771 279.901 206.349 280.343C206.961 280.751 207.879 281.057 209.103 281.261V282.383H197.679V281.261C198.835 281.057 199.702 280.751 200.28 280.343C200.858 279.901 201.147 279.17 201.147 278.15V264.89C201.147 262.986 200.705 261.575 199.821 260.657C198.937 259.705 197.713 259.229 196.149 259.229C193.735 259.229 191.44 260.623 189.264 263.411V278.15ZM221.552 282.944C219.478 282.944 217.642 282.4 216.044 281.312C214.446 280.19 213.205 278.677 212.321 276.773C211.471 274.869 211.046 272.761 211.046 270.449C211.046 267.525 211.624 264.975 212.78 262.799C213.936 260.623 215.466 258.957 217.37 257.801C219.308 256.645 221.399 256.067 223.643 256.067C225.275 256.067 226.618 256.356 227.672 256.934C228.726 257.478 229.661 258.26 230.477 259.28L232.16 256.067H233.843V282.026C233.843 285.562 232.874 288.299 230.936 290.237C229.032 292.209 226.125 293.195 222.215 293.195C219.529 293.195 217.353 292.787 215.687 291.971C214.021 291.189 212.797 290.237 212.015 289.115L216.656 286.514C217.2 287.874 218.016 288.979 219.104 289.829C220.226 290.713 221.637 291.155 223.337 291.155C227.451 291.155 229.508 288.52 229.508 283.25V278.456C228.658 279.68 227.553 280.734 226.193 281.618C224.833 282.502 223.286 282.944 221.552 282.944ZM215.636 268.511C215.636 270.449 215.908 272.285 216.452 274.019C216.996 275.753 217.829 277.181 218.951 278.303C220.073 279.391 221.467 279.935 223.133 279.935C224.425 279.935 225.666 279.663 226.856 279.119C228.046 278.575 228.93 277.946 229.508 277.232V265.859C229.508 264.669 229.27 263.462 228.794 262.238C228.318 261.014 227.57 259.994 226.55 259.178C225.53 258.328 224.238 257.903 222.674 257.903C221.348 257.903 220.141 258.362 219.053 259.28C217.999 260.164 217.166 261.422 216.554 263.054C215.942 264.652 215.636 266.471 215.636 268.511ZM46.1624 337.385C46.1624 338.711 46.5024 339.663 47.1824 340.241C47.8964 340.785 49.1544 341.125 50.9564 341.261V342.383H36.6254V341.261C38.4954 341.125 39.7704 340.768 40.4504 340.19C41.1644 339.578 41.5214 338.643 41.5214 337.385V313.364C41.5214 312.038 41.1644 311.086 40.4504 310.508C39.7704 309.896 38.4954 309.539 36.6254 309.437V308.315H50.7014C54.6794 308.315 57.8244 309.114 60.1364 310.712C62.4824 312.31 63.6554 314.69 63.6554 317.852C63.6554 320.3 62.9414 322.289 61.5134 323.819C60.0854 325.315 58.0964 326.352 55.5464 326.93L64.6244 339.017C65.7464 340.479 67.2254 341.227 69.0614 341.261V342.383H61.3094L50.2424 327.389H46.1624V337.385ZM49.5284 325.502C52.4864 325.502 54.7304 324.822 56.2604 323.462C57.8244 322.068 58.6064 320.198 58.6064 317.852C58.6064 315.506 57.8244 313.653 56.2604 312.293C54.7304 310.899 52.4864 310.202 49.5284 310.202H46.1624V325.502H49.5284ZM81.4898 316.067C83.5978 316.067 85.3828 316.628 86.8448 317.75C88.3068 318.838 89.3948 320.3 90.1088 322.136C90.8568 323.972 91.2308 326.012 91.2308 328.256H73.6358C73.7378 331.69 74.5878 334.427 76.1858 336.467C77.7838 338.473 79.8918 339.476 82.5098 339.476C85.5358 339.476 88.0858 338.014 90.1598 335.09L91.0778 335.498C90.3978 337.708 89.1228 339.527 87.2528 340.955C85.4168 342.383 83.2408 343.097 80.7248 343.097C78.4468 343.097 76.4408 342.519 74.7068 341.363C73.0068 340.207 71.6808 338.643 70.7288 336.671C69.8108 334.699 69.3518 332.557 69.3518 330.245C69.3518 327.355 69.8618 324.839 70.8818 322.697C71.9358 320.555 73.3808 318.923 75.2168 317.801C77.0528 316.645 79.1438 316.067 81.4898 316.067ZM86.5898 326.42C86.2498 320.776 84.2608 317.954 80.6228 317.954C78.5488 317.954 76.9168 318.719 75.7268 320.249C74.5708 321.745 73.8908 323.802 73.6868 326.42H86.5898ZM93.8011 351.359C95.0251 351.155 95.9431 350.832 96.5551 350.39C97.1671 349.982 97.4731 349.268 97.4731 348.248V322.442C97.4731 321.32 97.2521 320.521 96.8101 320.045C96.3681 319.535 95.5691 319.263 94.4131 319.229L93.8011 319.178V318.107L100.839 316.067H101.757V320.555C102.607 319.365 103.712 318.328 105.072 317.444C106.466 316.526 108.013 316.067 109.713 316.067C111.821 316.067 113.657 316.628 115.221 317.75C116.819 318.872 118.043 320.402 118.893 322.34C119.777 324.278 120.219 326.403 120.219 328.715C120.219 331.639 119.641 334.189 118.485 336.365C117.363 338.541 115.867 340.207 113.997 341.363C112.161 342.519 110.172 343.097 108.03 343.097C106.568 343.097 105.344 342.893 104.358 342.485C103.406 342.111 102.539 341.567 101.757 340.853V348.248C101.757 349.268 102.08 349.982 102.726 350.39C103.372 350.832 104.324 351.155 105.582 351.359V352.481H93.8011V351.359ZM101.757 333.254C101.757 334.58 102.012 335.855 102.522 337.079C103.032 338.303 103.797 339.323 104.817 340.139C105.837 340.921 107.095 341.312 108.591 341.312C109.951 341.312 111.158 340.87 112.212 339.986C113.3 339.068 114.15 337.81 114.762 336.212C115.374 334.58 115.68 332.727 115.68 330.653C115.68 328.715 115.408 326.862 114.864 325.094C114.32 323.326 113.47 321.898 112.314 320.81C111.192 319.688 109.781 319.127 108.081 319.127C106.823 319.127 105.582 319.399 104.358 319.943C103.168 320.487 102.301 321.116 101.757 321.83V333.254ZM135.271 343.097C132.959 343.097 130.902 342.553 129.1 341.465C127.332 340.343 125.955 338.796 124.969 336.824C123.983 334.852 123.49 332.625 123.49 330.143C123.49 327.389 124.034 324.941 125.122 322.799C126.21 320.657 127.672 319.008 129.508 317.852C131.344 316.662 133.367 316.067 135.577 316.067C137.923 316.067 139.997 316.628 141.799 317.75C143.601 318.872 144.995 320.419 145.981 322.391C146.967 324.363 147.46 326.607 147.46 329.123C147.46 331.843 146.916 334.274 145.828 336.416C144.74 338.524 143.261 340.173 141.391 341.363C139.521 342.519 137.481 343.097 135.271 343.097ZM128.08 328.256C128.08 330.194 128.352 332.149 128.896 334.121C129.44 336.093 130.307 337.742 131.497 339.068C132.721 340.394 134.234 341.057 136.036 341.057C138.11 341.057 139.776 340.105 141.034 338.201C142.292 336.297 142.921 333.832 142.921 330.806C142.921 328.868 142.632 326.93 142.054 324.992C141.51 323.02 140.643 321.371 139.453 320.045C138.263 318.719 136.767 318.056 134.965 318.056C132.891 318.056 131.225 319.008 129.967 320.912C128.709 322.782 128.08 325.23 128.08 328.256ZM150.08 341.261C151.508 341.023 152.477 340.666 152.987 340.19C153.497 339.714 153.752 338.966 153.752 337.946V322.442C153.752 321.388 153.531 320.606 153.089 320.096C152.647 319.586 151.831 319.297 150.641 319.229L150.08 319.178V318.107L157.118 316.067H158.036V323.768C158.92 321.116 160.042 319.161 161.402 317.903C162.796 316.645 164.309 316.016 165.941 316.016C166.893 316.016 167.709 316.118 168.389 316.322L167.777 321.014C167.369 320.708 166.859 320.47 166.247 320.3C165.669 320.096 165.108 319.994 164.564 319.994C163.204 319.994 161.946 320.47 160.79 321.422C159.668 322.34 158.75 323.666 158.036 325.4V337.946C158.036 338.966 158.393 339.714 159.107 340.19C159.821 340.632 161.147 340.989 163.085 341.261V342.383H150.08V341.261ZM169.938 316.781H174.375V311.579L177.69 309.59H178.608V316.781H185.391V318.566H178.608V335.6C178.608 337.3 178.948 338.541 179.628 339.323C180.342 340.071 181.294 340.445 182.484 340.445C183.164 340.445 183.742 340.343 184.218 340.139C184.728 339.901 185.272 339.561 185.85 339.119L186.36 339.986C185.34 340.938 184.371 341.703 183.453 342.281C182.569 342.825 181.549 343.097 180.393 343.097C178.455 343.097 176.959 342.468 175.905 341.21C174.885 339.952 174.375 338.065 174.375 335.549V318.566H169.938V316.781Z" fill="#00534F"/>
<path d="M89.1112 58.1113V50.9991C89.1112 47.323 87.049 45.0977 83.4992 45.0977C80.0622 45.0977 77.1773 47.203 77.1773 49.6465C77.1773 50.2792 77.3801 50.8137 77.7971 51.3918L80.265 50.5083C79.9495 49.9083 79.7917 49.4283 79.7917 48.8611C79.7917 47.3448 80.9299 46.134 82.7104 46.134C85.0544 46.134 86.4743 47.9557 86.4743 50.9119V51.3918L84.3332 51.85C79.4762 52.8972 77.1886 54.2389 77.1886 57.1187C77.1886 59.3658 78.924 61.0457 81.4595 61.0457C83.5105 61.0457 85.4037 59.9657 86.463 57.6314V60.5875H91.3087V59.933C90.0804 59.7476 89.1112 59.4421 89.1112 58.1113ZM86.4855 56.7914C85.5502 58.4495 84.1303 59.4094 82.609 59.4094C81.0201 59.4094 79.9833 58.3295 79.9833 56.7369C79.9833 54.7189 81.1327 53.6607 84.6262 52.8426L86.4855 52.4172V56.7914ZM117.667 59.933V60.5875H110.579V59.933C111.852 59.7258 112.821 59.4203 112.821 58.0786V43.5815C112.821 42.5016 112.314 42.0216 111.108 41.8798L110.579 41.8253V41.2035L114.895 40.0254H115.447V48.512C117.16 46.1449 118.828 45.0977 120.71 45.0977C123.245 45.0977 125.353 46.7558 125.353 50.1374V58.0786C125.353 59.4094 126.322 59.7039 127.561 59.933V60.5875H120.563V59.933C121.769 59.7258 122.716 59.4203 122.716 58.0786V50.3337C122.716 47.9993 121.487 46.974 119.662 46.974C118.253 46.974 116.901 47.683 115.458 49.4501V58.1004C115.447 59.4203 116.405 59.7258 117.667 59.933ZM109.283 58.6458C108.641 59.1367 108.077 59.4421 107.198 59.4421C105.823 59.4421 104.787 58.6786 104.787 56.5405V46.6358H109.486V45.5559H104.787V41.498H103.986L99.5126 45.8504V46.6249H102.161V56.5078C102.161 59.6058 103.536 61.0566 105.902 61.0566C107.547 61.0566 108.731 59.9439 109.587 59.1803L109.283 58.6458ZM99.1633 59.933V60.5875H92.075V59.933C93.3484 59.7258 94.3176 59.4203 94.3176 58.0786V43.7887C94.3176 42.5997 93.9119 41.9452 92.4131 41.858L92.0637 41.8253V41.2035L96.3911 40.0254H96.9545V58.1004C96.9545 59.4203 97.9237 59.7258 99.1633 59.933ZM75.2165 52.2972H64.4771C64.601 56.366 66.7196 58.9294 69.8862 58.9294C72.0837 58.9294 73.5712 57.6968 74.5629 56.3333L75.1151 56.5842C74.315 59.0603 72.0048 61.0566 68.8156 61.0566C64.5447 61.0566 61.8739 57.5768 61.8739 53.4753C61.8739 48.2284 64.9842 45.1087 69.2777 45.1087C73.2557 45.0977 75.2165 48.4466 75.2165 52.2972ZM72.3767 51.2173C72.1964 48.3484 71.2385 46.2104 68.7368 46.2104C66.0885 46.2104 64.7362 48.2611 64.4996 51.2173H72.3767ZM60.871 47.563L55.3942 61.0566H54.6842L50.0076 49.9847L45.5225 61.0566H44.8125L39.1104 47.5303C38.7948 46.8103 38.4004 46.5376 37.251 46.254V45.5668H44.1927V46.2431C42.1868 46.5922 41.815 46.9303 42.3108 48.2066L45.9507 57.4568L49.4216 48.5339L48.9821 47.5303C48.6891 46.8758 48.3059 46.5376 47.1001 46.254V45.5668H54.0644V46.2431C52.0698 46.5922 51.6867 46.9303 52.1825 48.2066L55.8675 57.4241L59.4285 48.2066C59.9243 46.8431 59.4623 46.5813 57.4339 46.2431V45.5668H62.7191V46.2431C61.6034 46.4613 61.1639 46.7667 60.871 47.563Z" fill="#00534F"/>
</svg>
