<svg width="136" height="132" viewBox="0 0 136 132" fill="none" xmlns="http://www.w3.org/2000/svg">
<g clip-path="url(#clip0_990_2387)">
<path d="M58.973 118.818H17.8296L19.0541 93.1031" stroke="black" stroke-width="1.78" stroke-linecap="round" stroke-linejoin="round"/>
<path d="M106.729 71.062C94.3856 74.0008 58.8096 74.0824 42.0747 73.511H20.5234C24.197 59.3067 31.544 47.5515 46.2381 46.0821C60.9321 44.6127 99.2091 55.4821 102.81 57.1026C107.953 59.4169 111.872 61.7557 106.729 71.062Z" stroke="black" stroke-width="1.78" stroke-linecap="round" stroke-linejoin="round"/>
<path d="M106.729 71.3068C112.226 81.9473 117.774 103.179 118.974 118.818C115.575 118.818 114.309 118.818 112.226 118.818" stroke="black" stroke-width="1.78" stroke-linecap="round" stroke-linejoin="round"/>
<path d="M104.525 86.4908L107.463 118.818H58.2381V97.0216C47.3808 97.4298 21.4753 95.9954 13.1764 89.9195C-0.538144 79.8784 10.693 64.6832 21.7479 68.3681" stroke="black" stroke-width="1.78" stroke-linecap="round" stroke-linejoin="round"/>
<path d="M72.7419 34.0083C70.3505 37.4782 70.8914 45.042 71.4608 48.3902L90.8909 53.1842C92.5991 47.1727 94.4353 34.1909 88.1152 30.3558C80.2151 25.5618 75.7311 29.6709 72.7419 34.0083Z" fill="#090909" stroke="black" stroke-width="1.78" stroke-linecap="round" stroke-linejoin="round"/>
<path d="M48.4421 32.3676C54.3198 25.7553 54.0749 14.2449 45.7482 14C34.9726 14 36.6869 21.8368 32.0338 28.4492C27.3806 35.0615 22.3193 33.5921 19.5438 37.7554C13.2816 47.1487 19.7887 50.0005 19.5438 55.3883C19.2989 60.7761 12.4417 63.47 10.2375 71.3069C15.1356 65.919 18.3193 67.3884 21.9928 67.6333C30.0745 45.8371 42.3196 43.8779 54.8096 46.082C53.83 41.9187 42.5645 38.9799 48.4421 32.3676Z" fill="black" stroke="black" stroke-width="1.78" stroke-linecap="round" stroke-linejoin="round"/>
<path d="M50.1564 15.7143C53.5851 19.3062 60.9321 28.0537 60.9321 33.3472C60.9321 40.2044 57.5035 42.8983 48.4421 41.4289" stroke="black" stroke-width="1.78" stroke-linecap="round" stroke-linejoin="round"/>
<path d="M18.3193 118.818H1.66602" stroke="black" stroke-width="1.78" stroke-linecap="round" stroke-linejoin="round"/>
<path d="M134.647 118.818H117.994" stroke="black" stroke-width="1.78" stroke-linecap="round" stroke-linejoin="round"/>
</g>
<defs>
<clipPath id="clip0_990_2387">
<rect width="135" height="132" fill="white" transform="translate(0.666016)"/>
</clipPath>
</defs>
</svg>
