<svg width="361" height="281" viewBox="0 0 361 281" fill="none" xmlns="http://www.w3.org/2000/svg">
<path d="M323.5 193.821L323.5 175.857" stroke="white" stroke-width="4" stroke-linecap="round" stroke-linejoin="round"/>
<path d="M314.518 184.84L332.481 184.84" stroke="white" stroke-width="4" stroke-linecap="round" stroke-linejoin="round"/>
<path d="M254.214 175.503C254.214 174.537 253.431 173.753 252.464 173.753C251.498 173.753 250.714 174.537 250.714 175.503L254.214 175.503ZM250.714 177.321C250.714 178.288 251.498 179.071 252.464 179.071C253.431 179.071 254.214 178.288 254.214 177.321L250.714 177.321ZM250.714 175.503L250.714 177.321L254.214 177.321L254.214 175.503L250.714 175.503Z" fill="black"/>
<path d="M254.214 189.953C254.214 188.986 253.431 188.203 252.464 188.203C251.498 188.203 250.714 188.986 250.714 189.953L254.214 189.953ZM250.714 191.77C250.714 192.737 251.498 193.52 252.464 193.52C253.431 193.52 254.214 192.737 254.214 191.77L250.714 191.77ZM250.714 189.953L250.714 191.77L254.214 191.77L254.214 189.953L250.714 189.953Z" fill="black"/>
<rect x="222.156" y="155.289" width="61.748" height="59.1009" rx="10" stroke="black" stroke-width="4"/>
<path d="M146.755 56.0457H101.007C96.5886 56.0457 93.0068 59.6274 93.0068 64.0456V74.7474C93.0068 79.1656 96.5886 82.7474 101.007 82.7474H101.858H146.755C151.173 82.7474 154.755 79.1656 154.755 74.7474V64.0457C154.755 59.6274 151.173 56.0457 146.755 56.0457Z" fill="black" stroke="black" stroke-width="4" stroke-linecap="round"/>
<path d="M6.96875 261.013L353.969 261.013" stroke="black" stroke-width="4" stroke-linecap="round" stroke-linejoin="round"/>
<path d="M40.325 102.057L48.9401 128.37C48.9401 128.37 43.9716 138.301 43.3061 146.19C42.6406 154.078 42.9779 191.179 42.9779 191.179C42.9779 191.179 37.6813 209.064 36.6876 216.351C35.6939 223.638 34.0347 249.183 34.0347 249.183H45.6217L44.9653 258.787" stroke="black" stroke-width="4" stroke-linecap="round" stroke-linejoin="round"/>
<path d="M57.8462 146.189C60.4991 154.133 82.5439 183.078 88.506 189.709C89.4997 207.593 91.2944 247.496 91.2944 247.496H102.553V258.759" stroke="black" stroke-width="4" stroke-linecap="round" stroke-linejoin="round"/>
<path d="M30.6971 91.4595H19.7573C19.7573 91.4595 21.1339 131.543 33.9972 131.543C42.6032 131.543 44.3707 114.831 44.3707 114.831" stroke="black" stroke-width="4" stroke-linecap="round" stroke-linejoin="round"/>
<path d="M62.0167 154.96L56.1016 245.836C56.1016 245.836 72.9943 251.801 76.9691 258.759" stroke="black" stroke-width="4" stroke-linecap="round" stroke-linejoin="round"/>
<path d="M23.0762 91.4595C23.0762 91.4595 19.4297 77.2139 24.3981 76.8673C29.3666 76.5208 30.6976 91.4595 30.6976 91.4595" stroke="black" stroke-width="4" stroke-linecap="round" stroke-linejoin="round"/>
<path d="M51.7202 128.281L65.589 128.281" stroke="black" stroke-width="4" stroke-linecap="round" stroke-linejoin="round"/>
<path d="M47.168 91.4596C55.2634 94.3871 64.0517 84.8201 61.7543 76.8674C56.6244 64.185 67.8607 64.7872 64.8431 57.2813C61.8256 49.7754 52.5285 50.0359 47.1862 55.6721C42.1813 60.9436 43.8223 67.8293 40.8047 72.9366C37.2766 78.7735 35.2437 87.1457 47.168 91.4596Z" fill="black" stroke="black" stroke-width="4" stroke-linecap="round" stroke-linejoin="round"/>
<path d="M58.5945 80.1049C62.0498 81.9326 67.0649 82.0542 69.6015 77.9896C75.3282 68.7015 63.8223 54.9882 63.8223 54.9882" stroke="black" stroke-width="4" stroke-linecap="round" stroke-linejoin="round"/>
<path d="M33.1141 119.239C33.1141 119.239 31.9344 90.4655 39.2185 88.1946C46.5025 85.9237 67.0328 84.8749 72.9949 88.1946C78.9571 91.5143 94.8744 106.745 94.8744 106.745L100.38 88.1945H111.976C111.976 88.1945 106.133 123.635 97.5273 122.979C88.9214 122.322 74.6723 106.745 74.6723 106.745L72.9949 128.712C72.9949 128.712 102.179 176.919 104.503 186.86C106.828 196.801 111.102 243.237 111.102 243.237C111.102 243.237 130.976 252.831 132.981 258.805" stroke="black" stroke-width="4" stroke-linecap="round" stroke-linejoin="round"/>
<path d="M100.391 88.1088C100.391 88.1088 105.598 70.7452 112.218 72.2746C117.413 74.1549 109.481 88.1088 109.481 88.1088" fill="white" stroke="black" stroke-width="4" stroke-linecap="round" stroke-linejoin="round"/>
<rect x="23.0698" y="19.6433" width="61.748" height="26.7017" rx="8" stroke="black" stroke-width="4"/>
<rect x="93.0068" y="19.6433" width="61.748" height="26.7017" rx="8" stroke="black" stroke-width="4"/>
<rect x="222.156" y="19.6433" width="61.748" height="59.1009" rx="10" stroke="black" stroke-width="4"/>
<rect x="222.151" y="87.4666" width="61.748" height="59.1009" rx="10" stroke="black" stroke-width="4"/>
<rect x="292.626" y="155.289" width="61.748" height="59.1009" rx="10" fill="black" stroke="black" stroke-width="4"/>
<rect x="292.626" y="87.0881" width="61.748" height="59.1009" rx="10" stroke="black" stroke-width="4"/>
<rect x="292.626" y="19.6433" width="61.748" height="59.1009" rx="10" stroke="black" stroke-width="4"/>
<path d="M253.296 36.5756H264.28L270.013 45.2251L253.296 64.4824" stroke="black" stroke-width="4" stroke-linecap="round" stroke-linejoin="round"/>
<path d="M253.296 36.5754H242.314L236.58 45.2249L253.296 64.4823" stroke="black" stroke-width="4" stroke-linecap="round" stroke-linejoin="round"/>
<path d="M269.78 45.3976L244.817 45.3976" stroke="black" stroke-width="4" stroke-linecap="round" stroke-linejoin="round"/>
<path d="M161.271 34.0583C183.509 34.0583 182.775 51.5352 213.967 51.5352" stroke="black" stroke-width="4" stroke-linecap="round"/>
<path d="M161.271 34.0583C183.509 34.0583 182.775 112.921 213.967 112.921" stroke="black" stroke-width="4" stroke-linecap="round"/>
<path d="M161.271 68.3372C183.509 68.3372 182.775 186.03 213.967 186.03" stroke="black" stroke-width="4" stroke-linecap="round"/>
<path d="M310.375 130.987C310.375 132.092 311.271 132.987 312.375 132.987C313.48 132.987 314.375 132.092 314.375 130.987L310.375 130.987ZM332.624 130.987C332.624 132.092 333.52 132.987 334.624 132.987C335.729 132.987 336.624 132.092 336.624 130.987L332.624 130.987ZM320.515 124.847L326.485 124.847L326.485 120.847L320.515 120.847L320.515 124.847ZM314.375 130.987C314.375 127.596 317.124 124.847 320.515 124.847L320.515 120.847C314.915 120.847 310.375 125.387 310.375 130.987L314.375 130.987ZM336.624 130.987C336.624 125.387 332.085 120.847 326.485 120.847L326.485 124.847C329.876 124.847 332.624 127.596 332.624 130.987L336.624 130.987Z" fill="black"/>
<circle cx="323.5" cy="109.879" r="5.58809" stroke="black" stroke-width="4"/>
<path d="M244.684 111.124C245.683 111.124 246.492 111.933 246.492 112.932V122.467C246.492 123.559 245.607 124.445 244.515 124.445V124.445C243.863 124.445 243.254 124.124 242.885 123.587L238.661 117.446H238.583V122.636C238.583 123.635 237.774 124.445 236.775 124.445V124.445C235.776 124.445 234.967 123.635 234.967 122.636V113.131C234.967 112.022 235.865 111.124 236.974 111.124V111.124C237.639 111.124 238.26 111.453 238.634 112.003L242.772 118.096H242.876V112.932C242.876 111.933 243.686 111.124 244.684 111.124V111.124Z" fill="black"/>
<path d="M250.939 124.445C249.94 124.445 249.13 123.635 249.13 122.636V111.124H257.04C257.844 111.124 258.497 111.776 258.497 112.581V112.581C258.497 113.385 257.844 114.038 257.04 114.038H252.747V116.327H256.467C257.272 116.327 257.924 116.98 257.924 117.784V117.784C257.924 118.589 257.272 119.241 256.467 119.241H252.747V122.636C252.747 123.635 251.937 124.445 250.939 124.445V124.445Z" fill="black"/>
<path d="M261.457 114.038C260.653 114.038 260 113.385 260 112.581V112.581C260 111.776 260.653 111.124 261.457 111.124H270.121C270.926 111.124 271.578 111.776 271.578 112.581V112.581C271.578 113.385 270.926 114.038 270.121 114.038H267.571V122.662C267.571 123.647 266.773 124.445 265.789 124.445V124.445C264.805 124.445 264.007 123.647 264.007 122.662V114.038H261.457Z" fill="black"/>
<path fill-rule="evenodd" clip-rule="evenodd" d="M252.569 176.219C254.047 176.219 255.324 176.613 256.384 177.414C257 177.874 257.453 178.456 257.737 179.157C257.959 179.707 257.813 180.241 257.477 180.622C257.147 180.997 256.633 181.232 256.085 181.232C255.345 181.232 254.836 180.624 254.541 180.126C254.157 179.475 253.324 179.162 252.377 179.162C251.688 179.162 251.174 179.302 250.806 179.55C250.455 179.787 250.288 180.103 250.288 180.529C250.288 180.724 250.33 180.88 250.406 181.007C250.481 181.135 250.599 181.249 250.774 181.347L250.779 181.349C251.009 181.483 251.553 181.661 252.456 181.876L254.782 182.434C255.821 182.683 256.637 183.023 257.205 183.47C258.095 184.172 258.527 185.185 258.527 186.461C258.527 187.783 258.015 188.891 257.004 189.764C255.992 190.639 254.582 191.055 252.817 191.055C251.016 191.055 249.559 190.645 248.483 189.791L248.482 189.79C247.88 189.309 247.442 188.723 247.173 188.034C246.954 187.472 247.111 186.933 247.457 186.55C247.797 186.174 248.322 185.942 248.877 185.942C249.601 185.942 250.121 186.494 250.395 187.034C250.781 187.792 251.565 188.157 252.707 188.157C253.353 188.157 253.856 188.085 254.227 187.955C254.58 187.829 254.821 187.657 254.973 187.455C255.125 187.254 255.208 186.999 255.208 186.672C255.208 186.334 255.07 186.084 254.765 185.893C254.417 185.681 253.844 185.479 253.018 185.299L253.016 185.298L251.588 184.978C250.181 184.66 249.161 184.305 248.572 183.898C247.565 183.207 247.078 182.13 247.078 180.73C247.078 179.439 247.552 178.354 248.495 177.496C249.449 176.628 250.824 176.219 252.569 176.219Z" fill="black"/>
<path d="M237.747 174.108C234.314 179.503 233.927 186.577 237.346 192.498C242.24 200.974 253.078 203.878 261.554 198.984C270.03 194.091 272.934 183.252 268.041 174.776C262.878 165.834 250.883 163.29 242.627 169.225" stroke="black" stroke-width="3.7" stroke-linecap="round" stroke-linejoin="round"/>
</svg>
