<svg width="136" height="132" viewBox="0 0 136 132" fill="none" xmlns="http://www.w3.org/2000/svg">
<g clip-path="url(#clip0_990_2375)">
<path d="M64.3455 19.4668C68.9194 19.6826 70.4584 14.0156 70.4584 10.0925C70.4584 6.16949 69.5379 2.24286 64.3455 2.24286C59.1532 2.24286 58.3873 7.58265 58.5922 10.8728C58.7972 14.163 59.7681 19.2475 64.3455 19.4668Z" stroke="black" stroke-width="1.78" stroke-linecap="round" stroke-linejoin="round"/>
<path d="M50.9006 66.6584C50.9006 66.6584 47.6068 59.9342 46.1685 55.8206C44.7302 51.707 46.7942 38.6146 48.5525 32.1421C50.6417 24.4363 57.6859 23.6452 60.4187 23.2568L61.6125 18.5427" stroke="black" stroke-width="1.78" stroke-linecap="round" stroke-linejoin="round"/>
<path d="M77.2905 60.9194L80.2894 65.5041L76.9957 120.873H74.2844L84.5469 130.081H51.0339L60.908 121.462H57.305L50.0234 66.8274L53.6588 61.5056L77.2905 60.9194Z" fill="black"/>
<path d="M79.369 65.5976C79.369 65.5976 82.7778 60.1607 84.2126 56.0471C85.6473 51.9335 81.5157 37.8343 79.9947 30.5168C78.4161 22.9512 71.2712 23.6452 68.5204 23.264L67.323 18.5499" stroke="black" stroke-width="1.78" stroke-linecap="round" stroke-linejoin="round"/>
<path d="M113.058 130.081H25.282" stroke="black" stroke-width="1.78" stroke-linecap="round" stroke-linejoin="round"/>
<path d="M60.4297 23.264C60.4297 23.264 61.7494 26.3457 64.5217 26.3457C67.2941 26.3457 68.5203 23.264 68.5203 23.264" stroke="black" stroke-width="1.78" stroke-linecap="round" stroke-linejoin="round"/>
<path d="M69.4084 5.52224C68.664 4.35001 67.7183 3.28564 66.3843 2.85055C66.3615 2.68881 66.2896 2.53797 66.1784 2.41837C66.0671 2.29878 65.9219 2.21617 65.7622 2.18172C64.1189 1.95878 62.2563 1.75023 60.8287 2.79302C59.5307 3.74231 58.9769 5.27413 58.6317 6.78797C58.5418 7.18351 58.3261 12.1565 58.7755 12.1565C59.0125 12.1519 59.2385 12.0557 59.4061 11.8881C59.5737 11.7205 59.6699 11.4945 59.6745 11.2576C59.7376 10.6325 59.9117 10.0236 60.1887 9.45966C60.3826 8.96363 60.7288 8.54187 61.1775 8.25506C61.6274 8.08576 62.1187 8.06063 62.5835 8.18315C63.2294 8.3276 63.884 8.4297 64.5432 8.48879C65.1848 8.49976 65.823 8.395 66.4274 8.17955C66.9021 8.02493 67.481 7.75884 67.988 7.90987C68.7827 8.14719 69.0452 9.34819 69.225 10.0853C69.4659 11.0598 71.0229 10.8692 70.9905 9.84801C70.9258 8.26945 70.2462 6.83831 69.4084 5.52224Z" fill="black"/>
<path d="M113.058 132.833H13.666" stroke="white" stroke-width="2.08445" stroke-linecap="round" stroke-linejoin="round"/>
</g>
<defs>
<clipPath id="clip0_990_2375">
<rect width="135" height="132" fill="white" transform="translate(0.666016)"/>
</clipPath>
</defs>
</svg>
