<svg width="136" height="132" viewBox="0 0 136 132" fill="none" xmlns="http://www.w3.org/2000/svg">
<g clip-path="url(#clip0_990_2351)">
<path d="M1.66602 121.239H134.666" stroke="black" stroke-width="1.77507" stroke-linecap="round"/>
<path d="M96.3367 30.4512L115.788 11" stroke="black" stroke-width="1.77507" stroke-linecap="round"/>
<path d="M91.8132 75.452L124.841 42.4247" stroke="black" stroke-width="1.77507" stroke-linecap="round"/>
<path d="M11.4917 22.8867L20.5255 13.8529" stroke="black" stroke-width="1.77507" stroke-linecap="round"/>
<path d="M66.052 45.5889C70.975 43.9371 72.8055 37.5376 71.1824 29.6006C69.5593 21.6637 63.7853 17.2126 58.9803 17.2126C54.1753 17.2126 46.0346 22.7613 47.7006 33.1151C49.3666 43.4688 59.9492 47.6231 66.052 45.5889Z" stroke="black" stroke-width="1.77507" stroke-linecap="round" stroke-linejoin="round"/>
<path d="M58.4964 33.9658C63.724 33.5961 66.8791 26.7271 67.8032 23.3388C66.4831 20.3686 60.0806 13.042 51.6979 20.3686C43.6188 29.7678 48.8364 38.2378 53.348 41.8205C53.9201 41.3804 55.3784 40.3109 55.7009 37.7771C53.348 36.4871 51.862 35.3592 52.522 33.3083C52.9595 31.949 55.1019 31.0969 58.4964 33.9658Z" fill="black" stroke="black" stroke-width="1.77507" stroke-linecap="round" stroke-linejoin="round"/>
<path d="M56.231 28.9268L60.1908 32.4896" stroke="#F5F3ED" stroke-width="1.77507" stroke-linecap="round" stroke-linejoin="round"/>
<path d="M46.2595 44.9561C46.617 42.5607 49.3735 40.362 51.1932 41.0591C53.013 41.7563 53.9354 45.3708 52.23 47.2907C50.9573 48.7207 48.3438 49.0783 47.0353 47.8126C46.0092 46.8223 46.213 45.2492 46.2595 44.9561Z" fill="black" stroke="black" stroke-width="1.77507" stroke-linecap="round" stroke-linejoin="round"/>
<path d="M41.1506 49.704C41.5904 47.9593 44.1145 46.8438 45.9557 47.7555C47.4287 48.492 48.2438 50.4297 47.6432 51.7811C46.8495 53.5687 43.7713 53.9262 42.1875 52.5605C41.4474 51.9277 40.8754 50.7837 41.1506 49.704Z" fill="black" stroke="black" stroke-width="1.77507" stroke-linecap="round" stroke-linejoin="round"/>
<path d="M36.4744 53.7296C36.9079 53.0961 37.5311 52.6163 38.2545 52.3594C38.9778 52.1024 39.764 52.0815 40.5001 52.2995C42.3377 52.868 43.3352 54.8522 42.9669 56.1965C42.3663 58.4095 37.9366 59.3748 36.4851 57.6265C35.384 56.2823 36.4136 53.869 36.4744 53.7296Z" fill="black" stroke="black" stroke-width="1.77507" stroke-linecap="round" stroke-linejoin="round"/>
<path d="M28.4302 58.5275C28.4302 58.5275 30.5074 62.0419 32.488 64.1191C36.5172 63.0787 36.8819 57.6194 36.4922 57.6194C36.1025 57.6194 28.4302 58.5275 28.4302 58.5275Z" fill="black" stroke="black" stroke-width="1.77507" stroke-linecap="round" stroke-linejoin="round"/>
<path d="M55.5496 44.2129L54.8599 49.7343" stroke="black" stroke-width="1.77507" stroke-linecap="round" stroke-linejoin="round"/>
<path d="M62.6733 46.261L63.3405 50.9982" stroke="black" stroke-width="1.77507" stroke-linecap="round" stroke-linejoin="round"/>
<path d="M54.7195 60.2C57.7524 56.4918 63.2891 62.816 64.8153 74.4135C66.144 84.5092 63.8815 90.1361 59.0884 91.2064C58.9013 91.2487 58.7068 91.2451 58.5214 91.1958C58.336 91.1466 58.1653 91.0531 58.0239 90.9235C57.8826 90.7938 57.7747 90.6319 57.7096 90.4514C57.6444 90.271 57.624 90.0775 57.65 89.8874C58.1108 86.6059 59.6735 80.2574 59.6735 80.2574C59.6735 80.2574 52.3279 63.1207 54.7195 60.2Z" fill="white" stroke="black" stroke-width="1.77507" stroke-linecap="round" stroke-linejoin="round"/>
<path d="M54.1538 97.3648C54.1538 97.3648 55.5947 116.257 58.118 120.906" stroke="black" stroke-width="1.77507" stroke-linecap="round" stroke-linejoin="round"/>
<path d="M63.6301 97.3648V115.062L71.99 120.908" stroke="black" stroke-width="1.77507" stroke-linecap="round" stroke-linejoin="round"/>
<path d="M70.2274 97.3648L68.5354 113.336L79.4283 120.908" stroke="black" stroke-width="1.77507" stroke-linecap="round" stroke-linejoin="round"/>
<path d="M57.2428 49.173C52.8544 49.173 48.7415 56.7454 48.6074 68.0358C48.4733 79.3261 45.3503 87.8908 39.7087 98.1913H76.7662C76.7662 98.1913 74.9109 49.173 57.2428 49.173Z" fill="black" stroke="black" stroke-width="1.77507" stroke-linecap="round" stroke-linejoin="round"/>
<path d="M55.2777 55.2451C58.2601 51.5986 63.7047 57.8175 65.2054 69.2221C66.512 79.1498 64.2872 84.683 59.5739 85.7355C59.3899 85.7771 59.1986 85.7735 59.0163 85.7251C58.834 85.6766 58.6662 85.5847 58.5271 85.4573C58.3881 85.3298 58.282 85.1705 58.218 84.9931C58.154 84.8157 58.1339 84.6253 58.1594 84.4385C58.6125 81.2115 60.1493 74.9687 60.1493 74.9687C60.1493 74.9687 52.9259 58.1172 55.2777 55.2451Z" fill="#F5F3ED" stroke="black" stroke-linecap="round" stroke-linejoin="round"/>
</g>
<defs>
<clipPath id="clip0_990_2351">
<rect width="135" height="132" fill="white" transform="translate(0.666016)"/>
</clipPath>
</defs>
</svg>
