<svg width="527" height="504" viewBox="0 0 527 504" fill="none" xmlns="http://www.w3.org/2000/svg">
<path d="M227.357 191.077C250.023 192.183 311.386 167.863 308.069 99.3068C304.751 30.7502 249.942 16.7995 206.345 19.7012C164.696 22.4711 131.711 60.6099 131.711 97.653C131.711 134.696 149.974 191.148 208.557 191.118C205.604 206.743 196.767 214.849 179.813 219.273C216.663 226.274 227.357 191.077 227.357 191.077Z" stroke="black" stroke-width="4" stroke-linecap="round" stroke-linejoin="round"/>
<path d="M181.284 96.1819H232.136" stroke="black" stroke-width="4" stroke-linecap="round" stroke-linejoin="round"/>
<path d="M181.284 117.194H255.725" stroke="black" stroke-width="4" stroke-linecap="round" stroke-linejoin="round"/>
<path d="M358.487 399.882H307.625" stroke="black" stroke-width="4" stroke-linecap="round" stroke-linejoin="round"/>
<path d="M358.487 378.87H284.036" stroke="black" stroke-width="4" stroke-linecap="round" stroke-linejoin="round"/>
<path d="M424.091 469.159C414.878 475.054 394.982 469.524 387.24 453.311C377.287 469.545 358.121 483.901 322.742 484.632C274.102 485.646 228.385 439.989 232.078 382.543C235.548 328.434 276.304 294.11 325.695 294.09C334.04 294.129 342.33 295.442 350.279 297.986C380.92 307.614 407.096 333.852 412.301 362.271C417.252 389.229 413.316 409.957 408.699 423.451C404.702 435.008 400.136 441.146 400.136 441.146C400.136 441.146 404.194 468.053 424.091 469.159Z" stroke="black" stroke-width="4" stroke-linecap="round" stroke-linejoin="round"/>
<path d="M101.861 231.722L183.221 457.552L220.346 484.652H163.224L163.782 461.6H153.463L60.6392 260.988" stroke="black" stroke-width="4" stroke-linecap="round" stroke-linejoin="round"/>
<path d="M39.0633 250.622L36.8052 460.687H49.7109L44.9118 484.652H106.092L69.9725 456.994L83.355 310.273" stroke="black" stroke-width="4" stroke-linecap="round" stroke-linejoin="round"/>
<path d="M31.2754 484.652H240.983" stroke="black" stroke-width="4" stroke-linecap="round" stroke-linejoin="round"/>
<path d="M324.692 484.652L524.958 484.652" stroke="black" stroke-width="4" stroke-linecap="round" stroke-linejoin="round"/>
<path d="M52.927 119.771C63.6108 105.77 47.7627 98.0284 46.2915 86.604C44.8204 75.1796 48.8686 56.0138 67.3039 60.0722C85.7392 64.1306 96.3316 113.136 73.6654 106.744L75.0859 121.709" stroke="black" stroke-width="4" stroke-linecap="round" stroke-linejoin="round"/>
<path d="M66.604 115.713C86.5206 117.184 110.151 185 110.151 185L158.527 181.165L162.118 198.301L104.347 211.562V238.956H31.3771C31.3771 238.956 22.0326 112.415 66.604 115.713Z" fill="black" stroke="black" stroke-width="4" stroke-linecap="round" stroke-linejoin="round"/>
<path d="M159.906 203.8C159.906 203.8 100.745 220.906 91.0756 210.152C81.4065 199.397 62.8799 152.38 62.8799 152.38" stroke="white" stroke-width="4" stroke-linecap="round" stroke-linejoin="round"/>
<path d="M162.118 193.015C162.118 193.015 189.208 207.392 202.753 193.015" stroke="black" stroke-width="4" stroke-linecap="round" stroke-linejoin="round"/>
<path d="M158.526 181.134L168.338 179.531" stroke="black" stroke-width="4" stroke-linecap="round" stroke-linejoin="round"/>
<path d="M80.6665 115.53C80.6665 115.53 87.6672 121.739 94.8709 134.138C109.928 121.963 126.75 96.1817 126.75 96.1817L117.496 84.4124L80.6665 115.53Z" fill="black" stroke="black" stroke-width="4" stroke-linecap="round" stroke-linejoin="round"/>
<path d="M117.486 84.4124C117.486 84.4124 128.576 63.745 143.044 59.5142" stroke="black" stroke-width="4" stroke-linecap="round" stroke-linejoin="round"/>
<path d="M126.729 96.1818L131.711 93.2395" stroke="black" stroke-width="4" stroke-linecap="round" stroke-linejoin="round"/>
<path d="M398.396 111.665C392.309 119.964 385.795 145.704 394.216 150.919C400.02 154.511 407.487 148.434 407.487 148.434L410.145 162.526" stroke="black" stroke-width="4" stroke-linecap="round" stroke-linejoin="round"/>
<path d="M401.958 119.406C416.325 133.783 409.06 174.509 435.917 163.632C448.193 158.671 440.655 141.778 433.471 131.683C426.288 121.587 429.87 122.166 427.11 113.603C424.35 105.039 409.973 104.207 401.958 108.631C393.943 113.055 401.958 119.406 401.958 119.406Z" fill="black" stroke="black" stroke-width="4" stroke-linecap="round" stroke-linejoin="round"/>
<path d="M318.999 293.689C326.378 283.478 333.683 285.937 343.405 285.354C353.632 275.127 366.629 235.223 366.629 235.223C366.629 235.223 376.116 178.709 385.42 170.288C391.558 164.718 398.549 162.547 418.8 162.547C439.052 162.547 447.524 164.363 452.495 178.73C454.727 185.193 455.118 230.715 455.118 230.715L467.013 280.936C470.98 296.044 469.823 305.895 463.025 312.024" stroke="black" stroke-width="4" stroke-linecap="round" stroke-linejoin="round"/>
<path d="M439.092 182.991L442.542 229.977H398.387L387.855 184.645" stroke="black" stroke-width="4" stroke-linecap="round" stroke-linejoin="round"/>
<path d="M391.274 199.346C391.274 199.346 384.679 229.602 380.489 239.372C372.747 257.432 352.997 295.348 346.503 296.596" stroke="black" stroke-width="4" stroke-linecap="round" stroke-linejoin="round"/>
<path d="M409.395 423.451C414.062 410.008 418.215 391.913 413.264 364.955C408.039 336.546 399.334 322.97 373.407 306.525C374.615 271.49 398.376 229.967 398.376 229.967H442.522L486.525 423.451H409.395Z" fill="black" stroke="black" stroke-width="4" stroke-linecap="round" stroke-linejoin="round"/>
<path d="M376.014 192.082H387.855" stroke="black" stroke-width="4" stroke-linecap="round" stroke-linejoin="round"/>
<path d="M441.091 192.082H452.931" stroke="black" stroke-width="4" stroke-linecap="round" stroke-linejoin="round"/>
<path d="M483.521 410.525L495.737 463.122L524.957 484.652" stroke="black" stroke-width="4" stroke-linecap="round" stroke-linejoin="round"/>
<path d="M483.481 482.795C483.481 482.795 482.73 470.295 479.585 461.417C473.639 444.606 458.653 419.17 455.995 399.872" stroke="black" stroke-width="4" stroke-linecap="round" stroke-linejoin="round"/>
<path d="M414.766 482.795C414.766 482.795 414.476 477.844 413.384 471.69M410.875 462C410.875 448.924 413.595 435.739 413.278 416.567" stroke="black" stroke-width="4" stroke-linecap="round" stroke-linejoin="round"/>
<path d="M393.017 482.795C393.017 482.795 393.578 474.034 395.888 466.224" stroke="black" stroke-width="4" stroke-linecap="round" stroke-linejoin="round"/>
<path d="M59.5 94.1251C63 100.25 58.25 106.25 55.125 105.5C47.6993 90.9675 34.893 92.2963 39.9539 84.1283C34.2858 82.6099 35.7167 75.8062 39.9538 75.0803C35.5918 72.3641 35.9206 65.0387 42.6699 64.2979C41.0238 57.6309 45.9677 54.7255 52.2177 56.7255C52.2177 48.5769 60.3663 50.3053 62.8356 54.5854C64.3994 51.4577 70.5583 50.2971 71.1192 56.7255C76.1668 51.7713 84.0065 60.9125 77.0894 66.8014C65.8725 70.8208 60.3575 73.9989 64.5638 85.0289C57.2728 85.0289 56 88.0001 59.5 94.1251Z" fill="black" stroke="black" stroke-linejoin="round"/>
</svg>
