<svg width="136" height="132" viewBox="0 0 136 132" fill="none" xmlns="http://www.w3.org/2000/svg">
<g clip-path="url(#clip0_990_2217)">
<path d="M1.31372 131.008H134.314" stroke="black" stroke-width="1.78" stroke-linecap="round"/>
<circle cx="46.7897" cy="97.7637" r="1.89985" fill="black"/>
<circle cx="36.8154" cy="97.7637" r="1.89985" fill="black"/>
<circle cx="56.7641" cy="97.7637" r="1.89985" fill="black"/>
<path d="M85.0659 124.935C76.5939 128.859 69.6177 125.854 66.9802 120.33C63.5891 125.861 57.0592 130.752 45.0055 131.001C28.4337 131.347 12.8574 115.791 14.1157 96.2189C15.2979 77.784 29.1838 66.0897 46.0114 66.0828C48.8546 66.096 51.6791 66.5436 54.3871 67.4102C64.8266 70.6907 73.7451 79.6299 75.5184 89.3123C77.2053 98.497 75.8641 105.559 74.2913 110.157C72.9293 114.094 71.3738 116.185 71.3738 116.185C71.3738 116.185 73.2051 124.311 85.0659 124.935Z" stroke="black" stroke-width="1.78" stroke-linecap="round" stroke-linejoin="round"/>
<path d="M74.6219 3.92993C72.5478 6.75757 70.3286 15.5274 73.1977 17.3042C75.175 18.5279 77.7191 16.4573 77.7191 16.4573L78.6248 21.2588" stroke="black" stroke-width="1.78" stroke-linecap="round" stroke-linejoin="round"/>
<path d="M75.8354 6.56749C82.8136 11.2653 78.2552 25.3412 87.4052 21.6356C91.5879 19.9452 89.0196 14.1897 86.5722 10.7502C84.1248 7.3107 85.345 7.50773 84.4048 4.59021C83.4645 1.67269 78.5663 1.38924 75.8354 2.8964C73.1046 4.40355 75.8354 6.56749 75.8354 6.56749Z" fill="black" stroke="black" stroke-width="1.78" stroke-linecap="round" stroke-linejoin="round"/>
<path d="M47.5708 65.9464C50.085 62.4672 52.5738 63.3052 55.8863 63.1065C59.3707 59.6221 63.7988 46.0266 63.7988 46.0266C63.7988 46.0266 67.0309 26.7723 70.2008 23.9032C72.2921 22.0054 74.6738 21.2657 81.5736 21.2657C88.4733 21.2657 91.3597 21.8845 93.0535 26.7792C93.814 28.9812 93.9473 44.491 93.9473 44.491L97.9997 61.6013C99.3513 66.7485 98.9573 70.105 96.6412 72.1929" stroke="black" stroke-width="1.78" stroke-linecap="round" stroke-linejoin="round"/>
<path d="M88.4871 28.2311L89.6624 44.2394H74.6185L71.0304 28.7945" stroke="black" stroke-width="1.78" stroke-linecap="round" stroke-linejoin="round"/>
<path d="M72.1953 33.8034C72.1953 33.8034 69.9484 44.1115 68.5207 47.4404C65.8832 53.5934 58.7762 67.5393 56.5638 67.9645" stroke="black" stroke-width="1.78" stroke-linecap="round" stroke-linejoin="round"/>
<path d="M74.8233 110.157C76.4134 105.576 78.0749 100.276 76.388 91.0911C74.6077 81.4121 73.6904 77.405 64.8572 71.8019C65.2685 59.8656 74.6151 44.236 74.6151 44.236H89.6556L104.648 110.157H74.8233Z" fill="black" stroke="black" stroke-width="1.78" stroke-linecap="round" stroke-linejoin="round"/>
<path d="M66.9963 31.3284H71.0304" stroke="black" stroke-width="1.78" stroke-linecap="round" stroke-linejoin="round"/>
<path d="M89.1681 31.3284H93.2021" stroke="black" stroke-width="1.78" stroke-linecap="round" stroke-linejoin="round"/>
<path d="M103.624 105.753L107.786 123.673L117.742 131.008" stroke="black" stroke-width="1.78" stroke-linecap="round" stroke-linejoin="round"/>
<path d="M103.61 130.375C103.61 130.375 103.355 126.117 102.283 123.092C100.257 117.364 95.1516 108.698 94.246 102.123" stroke="black" stroke-width="1.78" stroke-linecap="round" stroke-linejoin="round"/>
<path d="M80.1991 130.375C80.1991 130.375 80.1004 128.689 79.7283 126.592M78.8658 123.329C78.8659 118.874 79.7999 114.343 79.6921 107.811" stroke="black" stroke-width="1.78" stroke-linecap="round" stroke-linejoin="round"/>
<path d="M72.7889 130.375C72.7889 130.375 72.9166 128.212 73.4424 126.284" stroke="black" stroke-width="1.78" stroke-linecap="round" stroke-linejoin="round"/>
</g>
<defs>
<clipPath id="clip0_990_2217">
<rect width="135" height="132" fill="white" transform="translate(0.313721)"/>
</clipPath>
</defs>
</svg>
