<svg width="527" height="505" viewBox="0 0 527 505" fill="none" xmlns="http://www.w3.org/2000/svg">
<path d="M415.379 459.753L482.639 66.9365H125.12L57.8604 459.753H236.62H387.265" stroke="black" stroke-width="4" stroke-linecap="round" stroke-linejoin="round"/>
<path d="M207.56 424.298H99.8813L129.677 250.423C146.89 246.042 184.919 252.833 194.835 235.44" stroke="black" stroke-width="4" stroke-linecap="round" stroke-linejoin="round"/>
<path d="M129.677 250.423L155.021 102.365H440.592L385.44 424.272H196.122C202.189 406.334 213.567 365.884 228.249 345.768C242.932 325.652 290.113 319.461 290.113 319.461L293.797 292.273" stroke="black" stroke-width="4" stroke-linecap="round" stroke-linejoin="round"/>
<path d="M244.486 249.465C244.486 249.031 244.486 248.598 244.486 248.152" stroke="black" stroke-width="4" stroke-linecap="round" stroke-linejoin="round"/>
<path d="M443.898 301.896L499.242 459.753" stroke="black" stroke-width="4" stroke-linecap="round" stroke-linejoin="round"/>
<path d="M253.678 230.976C253.221 236.952 254.156 242.952 256.409 248.506C258.13 253.091 260.152 257.556 262.463 261.874" stroke="black" stroke-width="4" stroke-linecap="round" stroke-linejoin="round"/>
<path d="M290.682 189.165C310.616 189.165 327.718 213.406 333.874 238.814C341.945 267.576 336.624 281.797 317.318 290.716C298.012 299.636 278.044 288.169 259.346 256.554" stroke="black" stroke-width="4" stroke-linecap="round" stroke-linejoin="round"/>
<path d="M227.73 235.558C245.365 243.28 266.796 218.903 276.277 203.763C280.834 196.475 294.868 176.422 296.102 161.032C297.415 144.433 291.291 133.044 276.277 133.044C269.572 111.032 223.93 108.553 204.375 150.792C199.525 161.267 203.071 169.304 208.703 171.39C206.772 179.229 195.82 221.599 227.73 235.558Z" stroke="black" stroke-width="4" stroke-linecap="round" stroke-linejoin="round"/>
<path d="M335.275 273.884L350.643 310.883C350.643 310.883 381.924 312.881 402.758 322.722" stroke="black" stroke-width="4" stroke-linecap="round" stroke-linejoin="round"/>
<path d="M194.835 235.506C201.547 222.967 205.426 197.796 205.426 197.796" stroke="black" stroke-width="4" stroke-linecap="round" stroke-linejoin="round"/>
<path d="M244.486 248.138C244.604 242.058 245.418 234.285 245.418 234.285" stroke="black" stroke-width="4" stroke-linecap="round" stroke-linejoin="round"/>
<path d="M415.379 459.753L512.88 459.753" stroke="black" stroke-width="4" stroke-linecap="round" stroke-linejoin="round"/>
<path d="M14.1191 459.753H158.71" stroke="black" stroke-width="4" stroke-linecap="round" stroke-linejoin="round"/>
<path d="M195.715 234.16C195.715 234.16 181.962 288.345 201.249 294.159C220.535 299.974 239.187 255.609 239.187 255.609" stroke="black" stroke-width="4" stroke-linecap="round" stroke-linejoin="round"/>
<path d="M209.455 171.721C227.234 176.362 253.008 165.555 267.668 149.777C278.094 152.324 294.353 158.117 283.274 194.122" stroke="black" stroke-width="4" stroke-linecap="round" stroke-linejoin="round"/>
<path d="M125.12 66.9365L155.02 102.392" stroke="black" stroke-width="4" stroke-linecap="round" stroke-linejoin="round"/>
<path d="M440.592 102.392L482.639 66.9365" stroke="black" stroke-width="4" stroke-linecap="round" stroke-linejoin="round"/>
<path d="M99.9075 424.298L57.8604 459.753" stroke="black" stroke-width="4" stroke-linecap="round" stroke-linejoin="round"/>
<path d="M385.479 424.298L415.379 459.753" stroke="black" stroke-width="4" stroke-linecap="round" stroke-linejoin="round"/>
<path d="M345.465 154.906C345.465 154.906 371.214 132.579 393.736 135.242C416.259 137.905 410.164 155.63 410.164 155.63C410.164 155.63 419.898 139.891 431.791 140.522" stroke="black" stroke-width="4" stroke-linecap="round" stroke-linejoin="round"/>
<path d="M293.312 303.997C325.622 308.721 342.107 293.646 342.107 293.646" stroke="black" stroke-width="4" stroke-linecap="round"/>
<path d="M290.113 320.534L315.312 348.485L320.15 305.219L335.897 345.287L350.53 311.729" stroke="black" stroke-width="4" stroke-linecap="round" stroke-linejoin="round"/>
<path d="M241.115 247.855C236.581 254.907 240.096 260.297 245.47 260.297C243.623 266.006 249.331 269.028 253.542 267.793C254.872 273.562 264.511 275.936 267.869 270.731C258.805 260.297 252.751 243.009 253.542 231.708C253.542 231.708 245.47 237.604 234.196 237.604C231.882 241.834 232.719 247.855 241.115 247.855Z" fill="black" stroke="black" stroke-width="4" stroke-linecap="round"/>
<path d="M289.876 189.989C291.675 185.553 290.955 190.708 294.552 170.208C298.149 149.707 316.109 157.208 313.322 176.343C331.444 163.445 339.743 178.51 335.27 194.628C345.868 188.106 353.419 199.757 343.048 207.456C357.902 212.212 356.979 228.35 340.634 225.474C347.395 241.347 341.756 247.686 335.27 241.96C334.151 219.822 319.051 190.265 289.876 189.989Z" fill="black" stroke="black" stroke-width="4" stroke-linecap="round"/>
<circle cx="315.936" cy="170.287" r="8.95648" transform="rotate(-2.89185 315.936 170.287)" fill="black"/>
<ellipse cx="337.506" cy="187.868" rx="10.0166" ry="8.28" transform="rotate(-32.8918 337.506 187.868)" fill="black"/>
<ellipse cx="345.465" cy="229.323" rx="7.5731" ry="6.07955" transform="rotate(27.1082 345.465 229.323)" fill="black"/>
<ellipse cx="318.485" cy="212.196" rx="7.33642" ry="6.30349" transform="rotate(112.77 318.485 212.196)" fill="black"/>
<ellipse cx="327.644" cy="218.094" rx="7.33642" ry="6.30349" transform="rotate(80.6266 327.644 218.094)" fill="black"/>
<ellipse cx="309.834" cy="204.275" rx="10.3443" ry="8.88787" transform="rotate(96.6896 309.834 204.275)" fill="black"/>
<ellipse cx="298.426" cy="201.035" rx="10.3443" ry="8.88787" transform="rotate(80.6266 298.426 201.035)" fill="black"/>
<ellipse cx="286.81" cy="203.93" rx="10.3443" ry="8.88787" transform="rotate(80.6266 286.81 203.93)" fill="black"/>
<ellipse cx="276.974" cy="211.545" rx="6.94267" ry="5.96517" transform="rotate(117.571 276.974 211.545)" fill="black"/>
<ellipse cx="293.894" cy="192.621" rx="10.3443" ry="8.88787" transform="rotate(80.6266 293.894 192.621)" fill="black"/>
<ellipse cx="346.447" cy="206.779" rx="6.2904" ry="5.3964" transform="rotate(-17.8918 346.447 206.779)" fill="black"/>
<circle cx="326.529" cy="364.179" r="6.04821" fill="black"/>
<circle cx="329.009" cy="397.823" r="6.04821" fill="black"/>
</svg>
