<svg width="136" height="132" viewBox="0 0 136 132" fill="none" xmlns="http://www.w3.org/2000/svg">
<g clip-path="url(#clip0_990_2244)">
<path d="M129.663 8L109.462 125.981H2.08301L22.2841 8H129.663Z" stroke="black" stroke-width="1.78" stroke-linecap="round" stroke-linejoin="round"/>
<path d="M47.0446 115.332H14.7039L23.6528 63.1094C28.8226 61.7936 40.2445 63.8332 43.2229 58.6093" stroke="black" stroke-width="1.78" stroke-linecap="round" stroke-linejoin="round"/>
<path d="M23.6527 63.1096L31.2646 18.6411H117.035L100.47 115.324H43.6092C45.4313 109.937 48.8487 97.7877 53.2585 91.7459C57.6683 85.7042 71.8389 83.8446 71.8389 83.8446L72.9453 75.6789" stroke="black" stroke-width="1.78" stroke-linecap="round" stroke-linejoin="round"/>
<path d="M58.1351 62.8216C58.1351 62.6914 58.1351 62.5613 58.1351 62.4272" stroke="black" stroke-width="1.78" stroke-linecap="round" stroke-linejoin="round"/>
<path d="M118.028 78.569L134.65 125.98" stroke="black" stroke-width="1.78" stroke-linecap="round" stroke-linejoin="round"/>
<path d="M60.8958 57.2684C60.7587 59.0633 61.0394 60.8656 61.7161 62.5337C62.233 63.9106 62.8404 65.2518 63.5343 66.5486" stroke="black" stroke-width="1.78" stroke-linecap="round" stroke-linejoin="round"/>
<path d="M72.01 44.7106C77.997 44.7106 83.1335 51.9914 84.9825 59.6226C87.4065 68.2611 85.8086 72.5322 80.0101 75.2111C74.2116 77.8901 68.2141 74.446 62.5983 64.9508" stroke="black" stroke-width="1.78" stroke-linecap="round" stroke-linejoin="round"/>
<path d="M53.1026 58.6446C58.3993 60.9637 64.8359 53.6423 67.6835 49.0949C69.052 46.906 73.2671 40.8833 73.6378 36.2609C74.0322 31.2757 72.193 27.8548 67.6835 27.8548C65.6695 21.2438 51.9612 20.4992 46.088 33.1854C44.6315 36.3315 45.6964 38.7454 47.3879 39.3719C46.8081 41.7264 43.5187 54.4521 53.1026 58.6446Z" stroke="black" stroke-width="1.78" stroke-linecap="round" stroke-linejoin="round"/>
<path d="M85.403 70.1557L90.0187 81.2683C90.0187 81.2683 99.4136 81.8683 105.671 84.8239" stroke="black" stroke-width="1.78" stroke-linecap="round" stroke-linejoin="round"/>
<path d="M43.2229 58.6292C45.2385 54.863 46.4036 47.3032 46.4036 47.3032" stroke="black" stroke-width="1.78" stroke-linecap="round" stroke-linejoin="round"/>
<path d="M58.1351 62.4231C58.1706 60.597 58.4152 58.2622 58.4152 58.2622" stroke="black" stroke-width="1.78" stroke-linecap="round" stroke-linejoin="round"/>
<path d="M95.3188 125.981H134.65" stroke="black" stroke-width="1.78" stroke-linecap="round" stroke-linejoin="round"/>
<path d="M43.4869 58.2247C43.4869 58.2247 39.3561 74.4989 45.1488 76.2453C50.9415 77.9916 56.5434 64.6669 56.5434 64.6669" stroke="black" stroke-width="1.78" stroke-linecap="round" stroke-linejoin="round"/>
<path d="M47.6139 39.4715C52.9536 40.8652 60.6948 37.6195 65.0979 32.8806C68.2294 33.6457 73.1125 35.3854 69.785 46.1994" stroke="black" stroke-width="1.78" stroke-linecap="round" stroke-linejoin="round"/>
<path d="M22.2838 8L31.2643 18.6488" stroke="black" stroke-width="1.78" stroke-linecap="round" stroke-linejoin="round"/>
<path d="M117.034 18.6488L129.663 8" stroke="black" stroke-width="1.78" stroke-linecap="round" stroke-linejoin="round"/>
<path d="M14.7117 115.332L2.08301 125.981" stroke="black" stroke-width="1.78" stroke-linecap="round" stroke-linejoin="round"/>
<path d="M100.481 115.332L109.462 125.981" stroke="black" stroke-width="1.78" stroke-linecap="round" stroke-linejoin="round"/>
<path d="M72.7998 79.1999C82.5039 80.6188 87.4551 76.0911 87.4551 76.0911" stroke="black" stroke-width="1.78" stroke-linecap="round"/>
<path d="M71.8391 84.1666L79.4075 92.5617L80.8606 79.567L85.5901 91.6012L89.9851 81.5222" stroke="black" stroke-width="1.78" stroke-linecap="round" stroke-linejoin="round"/>
<path d="M57.1226 62.3383C55.761 64.4564 56.8168 66.0753 58.4306 66.0753C57.8758 67.7899 59.5905 68.6976 60.8551 68.3266C61.2547 70.0592 64.1496 70.7724 65.1582 69.209C62.4357 66.0753 60.6175 60.8827 60.8551 57.4886C60.8551 57.4886 58.4306 59.2596 55.0445 59.2596C54.3496 60.53 54.6011 62.3383 57.1226 62.3383Z" fill="black" stroke="black" stroke-width="1.78" stroke-linecap="round"/>
<path d="M71.768 44.9584C72.3081 43.6262 72.0921 45.1745 73.1723 39.0172C74.2525 32.8599 79.6469 35.1127 78.8099 40.86C84.2525 36.986 86.7452 41.5107 85.4016 46.3518C88.5848 44.3929 90.8526 47.8922 87.7379 50.2046C92.1991 51.633 91.922 56.4799 87.0127 55.6161C89.0434 60.3836 87.3497 62.2875 85.4016 60.5675C85.0658 53.9187 80.5303 45.0413 71.768 44.9584Z" fill="black" stroke="black" stroke-width="1.78" stroke-linecap="round"/>
<circle cx="79.5947" cy="39.0412" r="2.69003" transform="rotate(-2.89185 79.5947 39.0412)" fill="black"/>
<ellipse cx="86.0734" cy="44.3214" rx="3.00843" ry="2.48686" transform="rotate(-32.8918 86.0734 44.3214)" fill="black"/>
<ellipse cx="88.4635" cy="56.772" rx="2.27454" ry="1.82596" transform="rotate(27.1082 88.4635 56.772)" fill="black"/>
<ellipse cx="80.3605" cy="51.6281" rx="2.20346" ry="1.89322" transform="rotate(112.77 80.3605 51.6281)" fill="black"/>
<ellipse cx="83.111" cy="53.3996" rx="2.20346" ry="1.89322" transform="rotate(80.6266 83.111 53.3996)" fill="black"/>
<ellipse cx="77.762" cy="49.2491" rx="3.10686" ry="2.66943" transform="rotate(96.6896 77.762 49.2491)" fill="black"/>
<ellipse cx="74.3358" cy="48.276" rx="3.10686" ry="2.66943" transform="rotate(80.6266 74.3358 48.276)" fill="black"/>
<ellipse cx="70.8468" cy="49.1457" rx="3.10686" ry="2.66943" transform="rotate(80.6266 70.8468 49.1457)" fill="black"/>
<ellipse cx="67.8926" cy="51.4328" rx="2.0852" ry="1.79161" transform="rotate(117.571 67.8926 51.4328)" fill="black"/>
<ellipse cx="72.9748" cy="45.7489" rx="3.10686" ry="2.66943" transform="rotate(80.6266 72.9748 45.7489)" fill="black"/>
<ellipse cx="88.7586" cy="50.0013" rx="1.88929" ry="1.62078" transform="rotate(-17.8918 88.7586 50.0013)" fill="black"/>
<circle cx="82.7763" cy="97.2755" r="1.81655" fill="black"/>
<circle cx="83.5215" cy="107.38" r="1.81655" fill="black"/>
</g>
<defs>
<clipPath id="clip0_990_2244">
<rect width="135" height="132" fill="white" transform="translate(0.647095)"/>
</clipPath>
</defs>
</svg>
