<svg width="527" height="504" viewBox="0 0 527 504" fill="none" xmlns="http://www.w3.org/2000/svg">
<path d="M223.424 206.129H278.247L284.747 227.329C284.747 227.329 346.869 246.109 375.783 287.807C408.897 335.564 468.385 452.49 434.507 460.97H343.5V325.105L229.5 250.381L116.149 325.105V460.97H40.0134C40.0134 460.97 15.5342 454.412 40.0134 403.291C66.1886 348.609 108.674 276.683 146.283 251.158C188.684 222.397 222.095 222.397 222.095 222.397L223.424 206.129Z" fill="black" stroke="black" stroke-width="4" stroke-linecap="round" stroke-linejoin="round"/>
<path d="M117.192 375.632L97.9561 359.068C98.1352 343.129 98.8772 334.172 106 318C106 318 125 307 138.5 301C153.5 296.988 150.676 303.012 150.676 303.012L126.649 314.983L117.192 375.632Z" fill="white" stroke="white" stroke-width="4" stroke-linecap="round" stroke-linejoin="round"/>
<path d="M340.514 366.502L365.347 348.044C365.347 348.044 364.046 320.512 356.386 309.374C343.666 304.682 320.217 294.687 308.867 292.016C305.603 292.299 298.24 293.682 302 300C312.077 306.925 340.514 324.85 340.514 324.85V366.502Z" fill="white" stroke="white" stroke-width="4" stroke-linecap="round" stroke-linejoin="round"/>
<path d="M117.177 460.956V325.091L230.542 250.367" stroke="black" stroke-width="4" stroke-linecap="round" stroke-linejoin="round"/>
<path d="M343.892 460.956V325.091L230.542 250.367" stroke="black" stroke-width="4" stroke-linecap="round" stroke-linejoin="round"/>
<path d="M44 460.958L95.4302 460.958" stroke="black" stroke-width="4" stroke-linecap="round" stroke-linejoin="round"/>
<path d="M352.145 460.958L508 460.958" stroke="black" stroke-width="4" stroke-linecap="round" stroke-linejoin="round"/>
<path d="M7.14502 460.958L65 460.958" stroke="black" stroke-width="4" stroke-linecap="round" stroke-linejoin="round"/>
<path d="M379.142 355.661L431.52 416.365" stroke="white" stroke-width="4" stroke-linecap="round" stroke-linejoin="round"/>
<path d="M12.9082 156.06H157.007C157.007 156.06 161.759 140.767 142.038 139.407C122.317 138.048 118.924 143.15 100.575 143.15C82.2257 143.15 96.4959 122.755 67.9556 122.755C39.4153 122.755 12.9082 156.06 12.9082 156.06Z" stroke="black" stroke-width="4" stroke-linecap="round" stroke-linejoin="round"/>
<path d="M311.923 55.781H372.593C372.593 55.781 382.671 36.7285 367.434 36.7285C352.196 36.7285 344.306 46.9531 332.32 46.9531C311.881 46.9844 311.923 55.781 311.923 55.781Z" stroke="black" stroke-width="4" stroke-linecap="round" stroke-linejoin="round"/>
<path d="M286.747 227.5C275.747 198 280.224 174.134 280.475 171.098" stroke="black" stroke-width="4" stroke-linecap="round" stroke-linejoin="round"/>
<path d="M199.319 102.462C192.018 125.838 171.994 195.216 211.747 203.5C230.571 207.423 247.732 186.839 247.732 186.839" stroke="black" stroke-width="4" stroke-linecap="round" stroke-linejoin="round"/>
<path d="M280.424 171.107C268.73 172.713 253.523 163.008 252.517 152.549C266.574 141.867 269.905 125.963 257.747 122.5C245.589 119.037 248.984 138.112 232.7 136.438C216.416 134.764 199.319 102.462 199.319 102.462C209.016 75.6976 235.046 59.6351 272.287 74.1084C314.359 90.4556 281.657 143.032 280.424 171.107Z" fill="black" stroke="black" stroke-width="4" stroke-linecap="round" stroke-linejoin="round"/>
<path d="M357.347 104.375H501.445C501.445 104.375 506.198 89.0824 486.477 87.7228C466.755 86.3631 463.362 91.4649 445.013 91.4649C426.664 91.4649 440.934 71.0701 412.394 71.0701C383.854 71.0701 357.347 104.375 357.347 104.375Z" fill="white" stroke="black" stroke-width="4" stroke-linecap="round" stroke-linejoin="round"/>
</svg>
