<svg width="136" height="132" viewBox="0 0 136 132" fill="none" xmlns="http://www.w3.org/2000/svg">
<g clip-path="url(#clip0_990_2402)">
<path d="M60.2784 51.463H75.4103L77.2044 57.3145C77.2044 57.3145 94.3509 62.4978 102.331 74.007C111.471 87.1885 127.891 119.462 118.54 121.802H93.421V84.3018L61.9555 63.6771L30.6693 84.3018V121.802H9.65478C9.65478 121.802 2.89821 119.992 9.65478 105.882C16.8795 90.7892 28.6059 70.9369 38.9866 63.8916C50.6896 55.953 59.9117 55.953 59.9117 55.953L60.2784 51.463Z" fill="black" stroke="black" stroke-width="1.78" stroke-linecap="round" stroke-linejoin="round"/>
<path d="M30.957 98.248L25.6477 93.676C25.6971 89.2768 25.9019 86.8046 27.8679 82.3408C27.8679 82.3408 33.1122 79.3047 36.8384 77.6486C40.9785 76.5412 40.1992 78.204 40.1992 78.204L33.5674 81.5081L30.957 98.248Z" fill="#F5F3ED" stroke="#F5F3ED" stroke-width="1.78" stroke-linecap="round" stroke-linejoin="round"/>
<path d="M92.5969 95.728L99.451 90.6333C99.451 90.6333 99.0921 83.0341 96.9777 79.9601C93.4668 78.665 86.9945 75.9062 83.862 75.1689C82.9608 75.247 80.9288 75.6289 81.9665 77.3727C84.7479 79.2842 92.5969 84.2317 92.5969 84.2317V95.728Z" fill="#F5F3ED" stroke="#F5F3ED" stroke-width="1.78" stroke-linecap="round" stroke-linejoin="round"/>
<path d="M30.9529 121.798V84.2978L62.243 63.6731" stroke="black" stroke-width="1.78" stroke-linecap="round" stroke-linejoin="round"/>
<path d="M93.5291 121.798V84.2978L62.2429 63.6731" stroke="black" stroke-width="1.78" stroke-linecap="round" stroke-linejoin="round"/>
<path d="M10.7551 121.799L24.9505 121.799" stroke="black" stroke-width="1.78" stroke-linecap="round" stroke-linejoin="round"/>
<path d="M95.8071 121.799L134.749 121.799" stroke="black" stroke-width="1.78" stroke-linecap="round" stroke-linejoin="round"/>
<path d="M2 122L16.5515 121.799" stroke="black" stroke-width="1.78" stroke-linecap="round" stroke-linejoin="round"/>
<path d="M103.259 92.7358L117.716 109.491" stroke="#F5F3ED" stroke-width="1.78" stroke-linecap="round" stroke-linejoin="round"/>
<path d="M77.7563 57.3616C74.7202 49.2193 75.9557 42.6319 76.0251 41.794" stroke="black" stroke-width="1.78" stroke-linecap="round" stroke-linejoin="round"/>
<path d="M53.6252 22.8496C51.6101 29.3017 46.0831 48.4508 57.0555 50.7373C62.2511 51.82 66.9879 46.1388 66.9879 46.1388" stroke="black" stroke-width="1.78" stroke-linecap="round" stroke-linejoin="round"/>
<path d="M76.0112 41.7965C72.7833 42.2398 68.5861 39.5611 68.3084 36.6743C72.1883 33.7259 73.1078 29.336 69.752 28.3803C66.3962 27.4246 67.3332 32.6893 62.8386 32.2273C58.3441 31.7653 53.6251 22.8496 53.6251 22.8496C56.3016 15.4623 63.4862 11.0288 73.7651 15.0236C85.3776 19.5357 76.3514 34.0475 76.0112 41.7965Z" fill="black" stroke="black" stroke-width="1.78" stroke-linecap="round" stroke-linejoin="round"/>
</g>
<defs>
<clipPath id="clip0_990_2402">
<rect width="135" height="132" fill="white" transform="translate(0.666016)"/>
</clipPath>
</defs>
</svg>
