<svg width="527" height="504" viewBox="0 0 527 504" fill="none" xmlns="http://www.w3.org/2000/svg">
<g clip-path="url(#clip0_990_6637)">
<path d="M373.915 494.583C373.014 490.986 368.725 482.606 358.776 477.859C346.341 471.924 331.201 461.674 330.661 450.884C330.228 442.253 337.856 342.993 341.46 293.36" stroke="black" stroke-width="4" stroke-linecap="round" stroke-linejoin="round"/>
<path d="M281.418 306.883C285.565 358.09 294.184 463.426 295.482 475.11C300.242 475.11 304.317 475.11 305.759 475.11L301.432 493.501" stroke="black" stroke-width="4" stroke-linecap="round" stroke-linejoin="round"/>
<path d="M357.147 290.656L264.109 295.524L271.141 185.717" stroke="black" stroke-width="4" stroke-linecap="round" stroke-linejoin="round"/>
<path d="M464.79 137.034C437.528 143.525 358.95 143.706 321.987 142.444H274.386C282.5 111.07 298.728 85.1059 331.183 81.8604C363.638 78.6149 448.182 102.623 456.136 106.202C467.495 111.314 476.15 116.479 464.79 137.034Z" stroke="black" stroke-width="4" stroke-linecap="round" stroke-linejoin="round"/>
<path d="M464.79 137.575C476.69 160.835 491.403 248.356 494 282.542C486.643 282.542 483.903 282.542 479.395 282.542" stroke="black" stroke-width="4" stroke-linecap="round" stroke-linejoin="round"/>
<path d="M393.929 465.914C389.169 437.786 378.964 350.337 374.456 310.129H462.626C457.866 342.151 458.479 446.08 459.381 494.042H374.456C374.456 490.147 367.965 484.125 364.72 481.601C371.391 477.634 386.573 468.943 393.929 465.914Z" fill="black" stroke="black" stroke-width="4" stroke-linecap="round" stroke-linejoin="round"/>
<path d="M429.089 503.778V293.36" stroke="white" stroke-width="4" stroke-linecap="round" stroke-linejoin="round"/>
<path d="M71 494.583H478.313" stroke="black" stroke-width="4" stroke-linecap="round" stroke-linejoin="round"/>
<path d="M459.922 171.113L474.527 310.129H357.688V194.372C333.707 195.274 276.489 192.106 258.159 178.685C227.867 156.508 252.674 122.945 277.091 131.084" stroke="black" stroke-width="4" stroke-linecap="round" stroke-linejoin="round"/>
<path d="M487.509 282.542C490.394 298.409 491.836 330.143 474.527 330.143" stroke="black" stroke-width="4" stroke-linecap="round" stroke-linejoin="round"/>
<path d="M389.723 55.1926C384.441 62.8567 385.636 79.5631 386.893 86.9583L429.81 97.547C433.582 84.2692 437.638 55.5959 423.679 47.1251C406.229 36.5365 396.326 45.6124 389.723 55.1926Z" fill="#090909" stroke="black" stroke-width="4" stroke-linecap="round" stroke-linejoin="round"/>
<path d="M336.051 51.5688C349.033 36.964 348.492 11.5407 330.101 10.9998C306.3 10.9998 310.087 28.3092 299.809 42.9141C289.532 57.5189 278.353 54.2734 272.222 63.4691C258.391 84.2164 272.763 90.5151 272.222 102.415C271.682 114.316 256.536 120.266 251.667 137.575C262.486 125.675 269.518 128.92 277.632 129.461C295.482 81.3195 322.528 76.9921 350.115 81.8604C347.951 72.6647 323.069 66.1737 336.051 51.5688Z" fill="black" stroke="black" stroke-width="4" stroke-linecap="round" stroke-linejoin="round"/>
<path d="M339.838 14.7861C347.411 22.7196 363.638 42.0405 363.638 53.7324C363.638 68.8782 356.065 74.8283 336.051 71.5828" stroke="black" stroke-width="4" stroke-linecap="round" stroke-linejoin="round"/>
<path d="M181.878 330.71C189.038 319.86 208.398 234.77 178.608 240.94C154.278 245.94 137.579 321.295 158.268 311.94C169.878 306.691 147.418 245.94 126.478 256.15C105.538 266.36 110.108 340.55 166.648 371.27" stroke="black" stroke-width="4" stroke-linecap="round" stroke-linejoin="round"/>
</g>
<defs>
<clipPath id="clip0_990_6637">
<rect width="527" height="504" fill="white" transform="translate(0 -0.000244141)"/>
</clipPath>
</defs>
</svg>
