<svg width="527" height="504" viewBox="0 0 527 504" fill="none" xmlns="http://www.w3.org/2000/svg">
<g clip-path="url(#clip0_1004_1896)">
<rect width="527" height="504" fill="white"/>
<path d="M250.558 50.214C262.828 50.7928 266.957 35.5899 266.957 25.0656C266.957 14.5413 264.487 4.00732 250.558 4.00732C236.628 4.00732 234.573 18.3323 235.123 27.1589C235.673 35.9854 238.278 49.6255 250.558 50.214Z" stroke="black" stroke-width="4" stroke-linecap="round" stroke-linejoin="round"/>
<path d="M250.074 483.024C264.559 482.798 269.434 488.738 269.434 492.851C269.434 496.963 266.518 501.079 250.074 501.079C233.629 501.079 231.203 495.482 231.852 492.033C232.501 488.584 235.576 483.254 250.074 483.024Z" fill="black" stroke="black" stroke-width="4" stroke-linecap="round" stroke-linejoin="round"/>
<path d="M214.2 178.371C214.2 178.371 205.652 158.775 201.794 147.74C197.935 136.704 203.472 101.582 208.189 84.2179C213.794 63.5454 232.691 61.4232 240.023 60.3814L243.225 47.7349" stroke="black" stroke-width="4" stroke-linecap="round" stroke-linejoin="round"/>
<path d="M285.285 161.418L293.33 173.718L284.493 322.254H277.22L304.751 346.959H214.846L241.335 323.836H231.669L212.135 177.268L221.888 162.991L285.285 161.418Z" fill="black" stroke="black" stroke-linejoin="round"/>
<path d="M290.254 176.238C290.254 176.238 300.006 159.383 303.854 148.348C307.703 137.312 296.62 99.4885 292.539 79.8579C288.304 59.5617 269.137 61.4235 261.757 60.4009L258.545 47.7544" stroke="black" stroke-width="4" stroke-linecap="round" stroke-linejoin="round"/>
<path d="M203.645 424.056C200.544 426.374 192.936 432.175 189.155 436.048C184.337 440.983 191.251 456.69 197.141 464.455C203.959 473.46 226.528 474.594 236.153 475.077C236.408 475.09 236.654 475.102 236.89 475.114L264.028 475.106C265.297 475.043 266.844 475.004 268.584 474.961C279.479 474.69 297.905 474.231 302.464 466.405C303.671 464.325 305.369 461.789 307.193 459.064C313.07 450.285 320.261 439.542 316.593 435.776C313.436 432.535 307.426 428.608 303.673 426.295C303.978 425.334 310.712 403.535 298.91 388.564C293.799 382.081 289.774 375.609 286.831 370.301C283.428 364.162 287.583 357.316 294.06 354.608C298.239 352.861 301.786 350.469 306.121 346.959H218.648C223.211 350.855 226.9 353.124 231.162 354.844C234.393 356.148 234.913 361.207 231.949 363.039C222.876 368.647 210.992 378.468 214.264 390.071C216.878 399.345 203.474 424.019 203.645 424.056Z" fill="black" stroke="black" stroke-width="4" stroke-linecap="round" stroke-linejoin="round"/>
<path d="M223.256 88.8574V162.991H284.492L280.547 89.6484" stroke="black" stroke-width="4" stroke-linecap="round" stroke-linejoin="round"/>
<path d="M253.876 194.535L260.138 337.701" stroke="white" stroke-width="4" stroke-linecap="round" stroke-linejoin="round"/>
<path d="M452.178 346.959H74.8223" stroke="black" stroke-width="4" stroke-linecap="round" stroke-linejoin="round"/>
<path d="M240.053 60.4014C240.053 60.4014 243.593 68.6684 251.03 68.6684C258.468 68.6684 261.757 60.4014 261.757 60.4014" stroke="black" stroke-width="4" stroke-linecap="round" stroke-linejoin="round"/>
<path d="M264.139 12.8051C262.142 9.6603 259.605 6.80494 256.026 5.63771C255.965 5.20383 255.772 4.79917 255.474 4.47833C255.175 4.15748 254.786 3.93589 254.357 3.84347C249.949 3.24539 244.952 2.6859 241.122 5.48338C237.64 8.03005 236.155 12.1394 235.228 16.2006C234.987 17.2617 234.409 30.6028 235.614 30.6028C236.25 30.5905 236.856 30.3324 237.306 29.8828C237.756 29.4332 238.014 28.8269 238.026 28.1912C238.195 26.5142 238.662 24.8809 239.405 23.3679C239.926 22.0372 240.854 20.9058 242.058 20.1364C243.265 19.6822 244.583 19.6148 245.83 19.9434C247.563 20.331 249.319 20.6049 251.087 20.7634C252.808 20.7928 254.521 20.5118 256.142 19.9338C257.415 19.519 258.968 18.8052 260.329 19.2103C262.461 19.847 263.165 23.0689 263.647 25.0464C264.293 27.6606 268.47 27.1494 268.383 24.4098C268.21 20.175 266.387 16.3357 264.139 12.8051Z" fill="black"/>
<path d="M192.628 397.685H241.404" stroke="white" stroke-width="4" stroke-linecap="round"/>
<path d="M296.512 455.112H266.793" stroke="white" stroke-width="4" stroke-linecap="round"/>
<path d="M179.6 401.343H228.376" stroke="black" stroke-width="4" stroke-linecap="round"/>
<path d="M356.305 418.957H321.325" stroke="black" stroke-width="4" stroke-linecap="round"/>
</g>
<defs>
<clipPath id="clip0_1004_1896">
<rect width="527" height="504" fill="white"/>
</clipPath>
</defs>
</svg>
