<svg width="527" height="504" viewBox="0 0 527 504" fill="none" xmlns="http://www.w3.org/2000/svg">
<path d="M200.813 282.11C188.813 282.11 177.583 302.8 177.213 333.66C176.843 364.52 168.313 387.92 152.893 416.06H254.143C254.143 416.06 249.143 282.11 200.813 282.11Z" fill="black" stroke="black" stroke-width="4" stroke-linecap="round" stroke-linejoin="round"/>
<path d="M193.74 427.563C193.74 427.563 196.303 465.44 203.203 478.15" stroke="black" stroke-width="4" stroke-linecap="round" stroke-linejoin="round"/>
<path d="M218.263 413.8V462.16L241.103 478.13" stroke="black" stroke-width="4" stroke-linecap="round" stroke-linejoin="round"/>
<path d="M236.293 413.8L231.663 457.44L261.433 478.13" stroke="black" stroke-width="4" stroke-linecap="round" stroke-linejoin="round"/>
<path d="M313.283 328.41C313.283 328.41 317.863 361.83 295.283 361.83C272.703 361.83 282.103 320.83 282.103 320.83" stroke="black" stroke-width="4" stroke-linecap="round" stroke-linejoin="round"/>
<path d="M288.953 306.7C300.663 312.97 299.863 331.38 286.773 332.31C282.553 332.62 272.603 330.41 272.603 330.41C272.603 330.41 254.721 363.674 245.991 362.654C231.061 360.904 188.433 330.78 202.043 315.15C212.963 302.62 245.991 339.499 245.991 339.499C245.991 339.499 263.163 307.31 280.553 302.25V309.88" fill="white"/>
<path d="M288.953 306.7C300.663 312.97 299.863 331.38 286.773 332.31C282.553 332.62 272.603 330.41 272.603 330.41C272.603 330.41 254.721 363.674 245.991 362.654C231.061 360.904 188.433 330.78 202.043 315.15C212.963 302.62 245.991 339.499 245.991 339.499C245.991 339.499 263.163 307.31 280.553 302.25V309.88" stroke="black" stroke-width="4" stroke-linecap="round" stroke-linejoin="round"/>
<path d="M280.593 309.88V112.46" stroke="black" stroke-width="4" stroke-linecap="round" stroke-linejoin="round"/>
<path d="M280.593 36.7481V25.9998" stroke="black" stroke-width="4" stroke-linecap="round" stroke-linejoin="round"/>
<path d="M431.875 155.37C431.875 155.37 398.055 123.044 346.106 160.04C325.16 138.744 295.065 138.555 280.093 138.555C265.12 138.555 235.025 138.744 214.079 160.04C162.092 123.044 128.31 155.37 128.31 155.37C128.31 155.37 165.863 46.0469 280.14 46.0469C394.416 46.0469 431.875 155.37 431.875 155.37Z" fill="black" stroke="black" stroke-width="4" stroke-linecap="round" stroke-linejoin="round"/>
<path d="M212.755 135.663C212.755 135.663 215.865 79.0066 268.892 54.8091" stroke="white" stroke-width="4" stroke-linecap="round" stroke-linejoin="round"/>
<path d="M346.135 135.663C346.135 135.663 343.034 79.0066 289.999 54.8091" stroke="white" stroke-width="4" stroke-linecap="round" stroke-linejoin="round"/>
<path d="M113.944 87.5649L177.509 23.9999" stroke="black" stroke-width="4" stroke-linecap="round"/>
<path d="M41 478.13L486.86 478.13" stroke="black" stroke-width="4" stroke-linecap="round"/>
<path d="M391.513 87.5649L455.078 23.9999" stroke="black" stroke-width="4" stroke-linecap="round"/>
<path d="M423.295 71.2224L486.86 7.65735" stroke="black" stroke-width="4" stroke-linecap="round"/>
<path d="M202.579 243.167C217.853 242.087 227.072 222.017 229.772 212.117C225.915 203.438 207.208 182.031 182.715 203.438C159.109 230.901 174.354 255.648 187.536 266.116C189.208 264.831 193.469 261.706 194.411 254.302C187.536 250.533 183.195 247.238 185.123 241.245C186.401 237.274 192.661 234.784 202.579 243.167Z" fill="black" stroke="black" stroke-width="4" stroke-linecap="round" stroke-linejoin="round"/>
<path d="M222.584 273.87C236.354 269.25 241.474 251.35 236.934 229.15C232.394 206.95 216.244 194.5 202.804 194.5C189.364 194.5 166.594 210.02 171.254 238.98C175.914 267.94 205.514 279.56 222.584 273.87Z" stroke="black" stroke-width="4" stroke-linecap="round" stroke-linejoin="round"/>
<path d="M167.224 272.1C168.224 265.4 175.934 259.25 181.024 261.2C186.114 263.15 188.694 273.26 183.924 278.63C180.364 282.63 173.054 283.63 169.394 280.09C166.524 277.32 167.094 272.92 167.224 272.1Z" fill="black" stroke="black" stroke-width="4" stroke-linecap="round" stroke-linejoin="round"/>
<path d="M152.934 285.38C154.164 280.5 161.224 277.38 166.374 279.93C170.494 281.99 172.774 287.41 171.094 291.19C168.874 296.19 160.264 297.19 155.834 293.37C153.764 291.6 152.164 288.4 152.934 285.38Z" fill="black" stroke="black" stroke-width="4" stroke-linecap="round" stroke-linejoin="round"/>
<path d="M139.854 296.64C141.066 294.868 142.81 293.526 144.833 292.807C146.856 292.089 149.055 292.03 151.114 292.64C156.254 294.23 159.044 299.78 158.014 303.54C156.334 309.73 143.944 312.43 139.884 307.54C136.804 303.78 139.684 297.03 139.854 296.64Z" fill="black" stroke="black" stroke-width="4" stroke-linecap="round" stroke-linejoin="round"/>
<path d="M117.354 310.06C117.354 310.06 123.164 319.89 128.704 325.7C139.974 322.79 140.994 307.52 139.904 307.52C138.814 307.52 117.354 310.06 117.354 310.06Z" fill="black" stroke="black" stroke-width="4" stroke-linecap="round" stroke-linejoin="round"/>
<path d="M195.959 228.444L207.529 238.854" stroke="white" stroke-width="4" stroke-linecap="round" stroke-linejoin="round"/>
<path d="M193.208 270.021L191.279 285.465" stroke="black" stroke-width="4" stroke-linecap="round" stroke-linejoin="round"/>
<path d="M213.134 275.75L215 289" stroke="black" stroke-width="4" stroke-linecap="round" stroke-linejoin="round"/>
<path d="M108.584 291.79C111.168 290.708 114.037 290.512 116.744 291.23C124.424 293.23 128.534 301.85 135.664 305.38" stroke="black" stroke-width="4" stroke-linecap="round" stroke-linejoin="round"/>
<path d="M117.354 279.01C117.354 279.01 128.794 273.14 133.244 295.67C136.164 310.47 139.904 307.52 139.904 307.52" stroke="black" stroke-width="4" stroke-linecap="round" stroke-linejoin="round"/>
</svg>
