<svg width="527" height="505" viewBox="0 0 527 505" fill="none" xmlns="http://www.w3.org/2000/svg">
<path d="M163.249 366.044H455.457" stroke="black" stroke-width="4" stroke-linecap="round" stroke-linejoin="round"/>
<path d="M55.9766 366.044H84.2966" stroke="black" stroke-width="4" stroke-linecap="round" stroke-linejoin="round"/>
<path d="M246.447 235.026H489.577" stroke="black" stroke-width="4" stroke-linecap="round" stroke-linejoin="round"/>
<path d="M126.487 235.026H167.76" stroke="black" stroke-width="4" stroke-linecap="round" stroke-linejoin="round"/>
<path d="M490.822 235.026L475.252 366.044" stroke="black" stroke-width="4" stroke-linecap="round" stroke-linejoin="round"/>
<path d="M126.487 235.026L116.539 318.732" stroke="black" stroke-width="4" stroke-linecap="round" stroke-linejoin="round"/>
<path d="M411.216 366.044L394.776 457.574" stroke="black" stroke-width="4" stroke-linecap="round" stroke-linejoin="round"/>
<path d="M410.759 366.044L403.149 305.154" stroke="black" stroke-width="4" stroke-linecap="round" stroke-linejoin="round"/>
<path d="M55.0507 366.044L47.3467 304.405" stroke="black" stroke-width="4" stroke-linecap="round" stroke-linejoin="round"/>
<path d="M475.396 457.574V366.044" stroke="black" stroke-width="4" stroke-linecap="round" stroke-linejoin="round"/>
<path d="M54.6766 366.044L38.2266 457.574" stroke="black" stroke-width="4" stroke-linecap="round" stroke-linejoin="round"/>
<path d="M188.606 223.464L191.146 206.204" stroke="black" stroke-width="4" stroke-linecap="round" stroke-linejoin="round"/>
<path d="M201.944 315.164C175.939 317.164 121.796 323.533 119.943 338.537C118.625 349.13 134.798 433.431 134.798 433.431H147.187L113.749 457.584H177.706L159.579 349.84" stroke="black" stroke-width="4" stroke-linecap="round" stroke-linejoin="round"/>
<path d="M201.653 191.484C177.637 193.848 169.908 215.432 165.373 253.826C160.838 292.22 153.427 309.724 153.427 309.724L182.979 305.848H252.209C252.209 305.848 256.869 326.716 259.586 334.195H281.727C281.727 334.195 273.486 233.492 260.461 211.442C247.435 189.392 228.852 191.472 228.852 191.472L201.653 191.484Z" fill="black" stroke="black" stroke-width="4" stroke-linecap="round" stroke-linejoin="round"/>
<path d="M138.174 457.584H77.3662L110.805 433.431H98.416C98.416 433.431 82.2422 349.13 83.5493 338.537C85.4133 323.533 156.996 307.848 183.002 305.848C183.002 305.848 180.058 239.334 185.525 224.536" stroke="black" stroke-width="4" stroke-linecap="round" stroke-linejoin="round"/>
<path d="M185.525 224.536C182.183 233.581 181.984 261.948 182.334 282.636" stroke="white" stroke-width="4" stroke-linecap="round" stroke-linejoin="round"/>
<path d="M309.353 365.215L278.555 330.217C278.555 330.217 278.101 313.509 276.373 300.892C268.065 240.3 272.384 216.489 248.106 198.201" stroke="black" stroke-width="4" stroke-linecap="round" stroke-linejoin="round"/>
<path d="M242.877 226.582C242.877 226.582 249.932 329.843 270.993 364.85" stroke="black" stroke-width="4" stroke-linecap="round" stroke-linejoin="round"/>
<path d="M242.878 226.582C242.878 226.582 241.696 259.018 247.3 293.565" stroke="white" stroke-width="4" stroke-linecap="round" stroke-linejoin="round"/>
<path d="M202.329 167.146C208.926 179.031 222.91 186.09 235.002 177.934C253.037 165.773 244.791 89.9439 206.75 108.231C192.223 115.228 185.299 131.378 202.329 167.146" stroke="black" stroke-width="4" stroke-linecap="round" stroke-linejoin="round"/>
<path d="M198.041 157.224C198.041 157.224 222.256 140.431 223.463 118.037C223.463 118.037 232.838 129.138 242.366 133.525C243.711 141.747 246.145 163.296 240.585 170.614L261.532 169.421C261.532 169.421 246.272 99.559 216.184 103.971C179.288 109.384 176.925 174.239 176.925 174.239L204.919 172.645L198.041 157.224Z" fill="black" stroke="black" stroke-width="4" stroke-linecap="round" stroke-linejoin="round"/>
<path d="M208.793 175.234L206.088 191.936" stroke="black" stroke-width="4" stroke-linecap="round" stroke-linejoin="round"/>
<path d="M232.049 179.641L234.135 191.936" stroke="black" stroke-width="4" stroke-linecap="round" stroke-linejoin="round"/>
<path d="M338.47 144.24C338.47 144.24 344.289 166.961 361.192 173.836" stroke="black" stroke-width="4" stroke-linecap="round" stroke-linejoin="round"/>
<path d="M341.05 151.445C333.835 158.311 338.471 181.051 364.324 173.837C361.192 152.308 348.265 144.57 341.05 151.445Z" stroke="black" stroke-width="4" stroke-linecap="round" stroke-linejoin="round"/>
<path d="M450.78 41.9521C450.78 41.9521 441.368 78.7084 414.024 89.831" stroke="black" stroke-width="4" stroke-linecap="round" stroke-linejoin="round"/>
<path d="M446.607 53.6082C458.278 64.7151 450.78 101.503 408.956 89.8311C414.023 55.0044 434.935 42.4856 446.607 53.6082Z" stroke="black" stroke-width="4" stroke-linecap="round" stroke-linejoin="round"/>
<path d="M480.884 303.183L390.812 303.183" stroke="black" stroke-width="4" stroke-linecap="round"/>
<path d="M117.677 303.183H35.1675" stroke="black" stroke-width="4" stroke-linecap="round"/>
</svg>
