<svg width="429" height="394" viewBox="0 0 429 394" fill="none" xmlns="http://www.w3.org/2000/svg">
<path d="M248.765 353.398H149.926V359.704H248.765V353.398Z" fill="#1A1B1C" stroke="#1A1B1C" stroke-width="3.64889" stroke-linecap="round" stroke-linejoin="round"/>
<path d="M148.74 359.704L97.2539 260.344L102.289 257.721L148.995 351.615L148.74 359.704Z" fill="#1A1B1C" stroke="#1A1B1C" stroke-width="3.64889" stroke-linecap="round" stroke-linejoin="round"/>
<path d="M97.2539 259.773L108.283 200.972L113.327 198.358L102.554 255.666L97.2539 259.773Z" fill="#1A1B1C" stroke="#1A1B1C" stroke-width="3.64889" stroke-linecap="round" stroke-linejoin="round"/>
<path d="M149.927 353.398L103.832 257.719L113.775 198.358L154.451 284.32L149.927 353.398Z" stroke="#1A1B1C" stroke-width="3.64889" stroke-linecap="round" stroke-linejoin="round"/>
<path d="M156.558 451.131H17.9639L43.8801 235.206H107.608" stroke="#1A1B1C" stroke-width="3.64889" stroke-linecap="round" stroke-linejoin="round"/>
<path d="M156.558 451.131H295.152L269.235 235.206H223.04" stroke="#1A1B1C" stroke-width="3.64889" stroke-linecap="round" stroke-linejoin="round"/>
<path d="M110.172 389.457C110.172 389.457 129.839 391.988 129.839 371.475C129.839 350.962 110.172 353.492 110.172 353.492" stroke="#1A1B1C" stroke-width="3.64889" stroke-linecap="round" stroke-linejoin="round"/>
<path d="M110.181 353.398V394.984C110.181 394.984 107.354 411.422 89.2825 411.422C71.2113 411.422 68.4199 394.984 68.4199 394.984V353.398C68.4199 353.398 68.4199 378.06 89.319 378.06C110.218 378.06 110.181 353.398 110.181 353.398Z" fill="#1A1B1C" stroke="#1A1B1C" stroke-width="3.64889" stroke-linecap="round" stroke-linejoin="round"/>
<path d="M84.3832 344.107C79.7765 342.209 77.3226 336.329 76.8665 330.781C76.4104 325.233 77.4503 319.674 77.4595 314.095C77.4686 308.515 76.1459 302.449 72.1868 299.161C69.4502 296.89 65.9563 296.33 62.6906 295.303C56.5554 293.348 50.9948 289.555 46.5898 284.321" stroke="#1A1B1C" stroke-width="3.64889" stroke-linecap="round" stroke-linejoin="round"/>
<path d="M96.8523 343.101C96.1955 339.336 92.5284 337.49 90.1657 334.752C88.8805 333.235 87.9468 331.378 87.4485 329.349C86.9501 327.32 86.9027 325.182 87.3105 323.127" stroke="#1A1B1C" stroke-width="3.64889" stroke-linecap="round" stroke-linejoin="round"/>
<path d="M68.3818 353.398H110.18" stroke="#1A1B1C" stroke-width="3.64889" stroke-linecap="round" stroke-linejoin="round"/>
<path d="M154.45 284.321H238.959L248.765 353.399" stroke="#1A1B1C" stroke-width="3.64889" stroke-linecap="round" stroke-linejoin="round"/>
<path d="M259.191 106.331C259.191 106.331 295.343 35.0853 309.409 92.6314C335.517 46.5033 383.719 -11.0739 427.086 4.94854" stroke="#1A1B1C" stroke-width="3.64889" stroke-linecap="round" stroke-linejoin="round"/>
<path d="M194.542 254.162C181.16 230.714 163.408 203.523 148.739 187.013C201.329 151.048 233.64 111.972 233.64 111.972C250.788 132.612 266.128 155.101 279.443 179.121C279.443 179.121 234.707 233.276 194.542 254.162Z" stroke="#1A1B1C" stroke-width="3.64889" stroke-linecap="round" stroke-linejoin="round"/>
<path d="M151.449 188.05L223.186 190.269L234.708 114.709" stroke="#1A1B1C" stroke-width="3.64889" stroke-linecap="round" stroke-linejoin="round"/>
<path d="M161.941 341.182H212.596L208.227 294.255H162.588L160.782 341.182" stroke="#1A1B1C" stroke-width="3.64889" stroke-linecap="round" stroke-linejoin="round"/>
<path d="M174.519 294.255V340.342" stroke="#1A1B1C" stroke-width="3.64889" stroke-linecap="round" stroke-linejoin="round"/>
<path d="M200.036 339.502L198.02 296.07" stroke="#1A1B1C" stroke-width="3.64889" stroke-linecap="round" stroke-linejoin="round"/>
<path d="M187.428 339.502L186.689 294.255" stroke="#1A1B1C" stroke-width="3.64889" stroke-linecap="round" stroke-linejoin="round"/>
<path d="M162.844 330.21H210.489" stroke="#1A1B1C" stroke-width="3.64889" stroke-linecap="round" stroke-linejoin="round"/>
<path d="M162.861 317.527H199.013" stroke="#1A1B1C" stroke-width="3.64889" stroke-linecap="round" stroke-linejoin="round"/>
<path d="M162.861 304.844H208.181" stroke="#1A1B1C" stroke-width="3.64889" stroke-linecap="round" stroke-linejoin="round"/>
<path d="M131.208 235.206H182.466" stroke="#1A1B1C" stroke-width="3.64889" stroke-linecap="round" stroke-linejoin="round"/>
</svg>
