<svg width="147" height="36" viewBox="0 0 147 36" fill="none" xmlns="http://www.w3.org/2000/svg">
<path d="M84.2075 30.5167V18.8994C84.2075 12.8948 80.8735 9.25994 75.1348 9.25994C69.5783 9.25994 64.9145 12.6988 64.9145 16.69C64.9145 17.7234 65.2424 18.5965 65.9165 19.5409L69.9062 18.0976C69.3961 17.1176 69.1411 16.3337 69.1411 15.4071C69.1411 12.9304 70.9811 10.9526 73.8596 10.9526C77.6489 10.9526 79.9444 13.9282 79.9444 18.7569V19.5409L76.483 20.2892C68.631 21.9997 64.9327 24.1914 64.9327 28.8953C64.9327 32.5658 67.7383 35.3097 71.8373 35.3097C75.153 35.3097 78.2137 33.5458 79.9262 29.7327V34.5614H87.76V33.4923C85.7742 33.1894 84.2075 32.6905 84.2075 30.5167ZM79.9626 28.3607C78.4505 31.0691 76.155 32.637 73.6956 32.637C71.1268 32.637 69.4508 30.8731 69.4508 28.2717C69.4508 24.9753 71.309 23.247 76.9566 21.9107L79.9626 21.2158V28.3607ZM130.372 33.4923V34.5614H118.913V33.4923C120.972 33.1538 122.538 32.6549 122.538 30.4633V6.78325C122.538 5.01928 121.719 4.23529 119.769 4.00365L118.913 3.91457V2.89894L125.891 0.974609H126.783V14.8369C129.552 10.9705 132.249 9.25994 135.291 9.25994C139.39 9.25994 142.797 11.9683 142.797 17.4918V30.4633C142.797 32.637 144.364 33.1181 146.368 33.4923V34.5614H135.054V33.4923C137.004 33.1538 138.534 32.6549 138.534 30.4633V17.8125C138.534 13.9995 136.548 12.3246 133.597 12.3246C131.32 12.3246 129.133 13.4828 126.801 16.3693V30.4989C126.783 32.6549 128.332 33.1538 130.372 33.4923ZM116.818 31.3898C115.779 32.1916 114.869 32.6905 113.448 32.6905C111.225 32.6905 109.549 31.4432 109.549 27.9509V11.7723H117.146V10.0083H109.549V3.38003H108.255L101.023 10.4894V11.7544H105.304V27.8975C105.304 32.9578 107.527 35.3275 111.352 35.3275C114.012 35.3275 115.925 33.5101 117.31 32.2629L116.818 31.3898ZM100.458 33.4923V34.5614H88.9988V33.4923C91.0575 33.1538 92.6242 32.6549 92.6242 30.4633V7.12179C92.6242 5.17964 91.9684 4.11056 89.5454 3.96802L88.9806 3.91457V2.89894L95.9764 0.974609H96.8873V30.4989C96.8873 32.6549 98.454 33.1538 100.458 33.4923ZM61.7445 21.0198H44.3826C44.583 27.6658 48.0081 31.8531 53.1273 31.8531C56.6799 31.8531 59.0847 29.8396 60.6879 27.6124L61.5806 28.0222C60.2871 32.0669 56.5524 35.3275 51.3966 35.3275C44.492 35.3275 40.1743 29.6436 40.1743 22.9441C40.1743 14.3737 45.2025 9.27776 52.1436 9.27776C58.5746 9.25994 61.7445 14.73 61.7445 21.0198ZM57.1536 19.2558C56.8621 14.5697 55.3135 11.0774 51.2691 11.0774C46.9878 11.0774 44.8017 14.4271 44.4191 19.2558H57.1536ZM38.5529 13.2868L29.6988 35.3275H28.5511L20.9906 17.2424L13.7398 35.3275H12.592L3.37367 13.2333C2.86356 12.0574 2.22592 11.6119 0.367676 11.1486V10.0261H11.59V11.1308C8.34721 11.701 7.74601 12.2533 8.54761 14.338L14.4321 29.4476L20.0432 14.8726L19.3327 13.2333C18.8591 12.1643 18.2396 11.6119 16.2903 11.1486V10.0261H27.5491V11.1308C24.3245 11.701 23.7051 12.2533 24.5067 14.338L30.464 29.3942L36.2209 14.338C37.0225 12.1108 36.2756 11.6832 32.9963 11.1308V10.0261H41.5406V11.1308C39.737 11.4872 39.0265 11.9861 38.5529 13.2868Z" fill="#75DBD3"/>
</svg>
