<svg width="361" height="281" viewBox="0 0 361 281" fill="none" xmlns="http://www.w3.org/2000/svg">
<path d="M99.0988 202.728H70.7946H42.4908C42.0587 212.163 40.4424 225.354 50.3637 233.709C56.0548 238.502 57.9701 244.76 58.3637 246.87H70.7946H83.2258C83.6194 244.76 85.5347 238.502 91.2259 233.709C101.147 225.354 99.5308 212.163 99.0988 202.728Z" fill="black" stroke="black" stroke-width="4" stroke-linecap="round" stroke-linejoin="round"/>
<path d="M42.1904 213.085C39.9776 210.921 34.4901 207.892 30.2418 213.085C24.9313 219.576 31.4219 228.279 38.6501 230.344C45.8782 232.409 53.549 236.982 55.9092 240.965" stroke="black" stroke-width="4" stroke-linecap="round" stroke-linejoin="round"/>
<path d="M207.03 89.7937C208.052 89.7937 208.88 88.9654 208.88 87.9437C208.88 86.9219 208.052 86.0937 207.03 86.0937V89.7937ZM195.839 86.0937C194.818 86.0937 193.989 86.9219 193.989 87.9437C193.989 88.9654 194.818 89.7937 195.839 89.7937V86.0937ZM207.03 96.0037C208.052 96.0037 208.88 95.1754 208.88 94.1537C208.88 93.132 208.052 92.3037 207.03 92.3037V96.0037ZM195.839 92.3037C194.818 92.3037 193.989 93.132 193.989 94.1537C193.989 95.1754 194.818 96.0037 195.839 96.0037V92.3037ZM207.03 86.0937H195.839V89.7937H207.03V86.0937ZM207.03 92.3037H195.839V96.0037H207.03V92.3037Z" fill="black"/>
<path d="M214.742 109.123L214.742 110.973C215.232 110.973 215.703 110.778 216.05 110.431C216.397 110.084 216.592 109.614 216.592 109.123L214.742 109.123ZM185.392 109.123C185.392 110.145 186.22 110.973 187.242 110.973C188.264 110.973 189.092 110.145 189.092 109.123L185.392 109.123ZM187.242 75.9342L187.242 74.0842C186.22 74.0842 185.392 74.9125 185.392 75.9342L187.242 75.9342ZM193.882 107.273C192.86 107.273 192.032 108.101 192.032 109.123C192.032 110.145 192.86 110.973 193.882 110.973L193.882 107.273ZM208.553 75.9342L209.954 74.7261C209.602 74.3185 209.091 74.0842 208.553 74.0842L208.553 75.9342ZM214.742 83.1117L216.592 83.1117C216.592 82.6682 216.432 82.2394 216.143 81.9036L214.742 83.1117ZM189.092 109.123L189.092 75.9342L185.392 75.9342L185.392 109.123L189.092 109.123ZM214.742 107.273L193.882 107.273L193.882 110.973L214.742 110.973L214.742 107.273ZM187.242 77.7842L208.553 77.7842L208.553 74.0842L187.242 74.0842L187.242 77.7842ZM212.892 83.1117L212.892 109.123L216.592 109.123L216.592 83.1117L212.892 83.1117ZM207.152 77.1423L213.341 84.3198L216.143 81.9036L209.954 74.7261L207.152 77.1423Z" fill="black"/>
<path d="M268.33 88.1977L269.97 87.3416C270.324 88.0196 270.224 88.8455 269.719 89.4197L268.33 88.1977ZM262.915 77.8263L262.915 75.9763C263.605 75.9763 264.237 76.3593 264.555 76.9702L262.915 77.8263ZM238.35 76.9668C238.824 76.062 239.943 75.7134 240.847 76.1881C241.752 76.6628 242.101 77.781 241.626 78.6858L238.35 76.9668ZM234.546 88.1977L233.153 89.4144C232.651 88.8391 232.553 88.0144 232.908 87.3382L234.546 88.1977ZM246.846 79.6763C245.824 79.6763 244.996 78.848 244.996 77.8263C244.996 76.8046 245.824 75.9763 246.846 75.9763L246.846 79.6763ZM251.373 107.47L252.762 108.692C252.41 109.093 251.902 109.321 251.37 109.32C250.837 109.319 250.33 109.089 249.979 108.687L251.373 107.47ZM266.69 89.0538L261.275 78.6824L264.555 76.9702L269.97 87.3416L266.69 89.0538ZM241.626 78.6858L236.185 89.0572L232.908 87.3382L238.35 76.9668L241.626 78.6858ZM262.915 79.6763L246.846 79.6763L246.846 75.9763L262.915 75.9763L262.915 79.6763ZM235.94 86.981L252.767 106.254L249.979 108.687L233.153 89.4144L235.94 86.981ZM249.984 106.248L266.941 86.9757L269.719 89.4197L252.762 108.692L249.984 106.248Z" fill="black"/>
<path d="M267.165 87.7839H235.72" stroke="black" stroke-width="3.7" stroke-linecap="round" stroke-linejoin="round"/>
<path d="M217.493 133.552L219.493 133.552C219.493 132.856 219.132 132.211 218.539 131.847L217.493 133.552ZM217.493 153.177L217.493 155.177C218.598 155.177 219.493 154.281 219.493 153.177L217.493 153.177ZM184.295 153.177C184.295 154.281 185.19 155.177 186.295 155.177C187.4 155.177 188.295 154.281 188.295 153.177L184.295 153.177ZM186.295 133.552L185.255 131.844C184.659 132.207 184.295 132.854 184.295 133.552L186.295 133.552ZM193.469 151.177C192.365 151.177 191.469 152.072 191.469 153.177C191.469 154.281 192.365 155.177 193.469 155.177L193.469 151.177ZM201.953 124.02L202.999 122.315C202.359 121.923 201.554 121.922 200.913 122.312L201.953 124.02ZM215.493 133.552L215.493 153.177L219.493 153.177L219.493 133.552L215.493 133.552ZM188.295 153.177L188.295 133.552L184.295 133.552L184.295 153.177L188.295 153.177ZM217.493 151.177L193.469 151.177L193.469 155.177L217.493 155.177L217.493 151.177ZM187.335 135.26L202.993 125.728L200.913 122.312L185.255 131.844L187.335 135.26ZM200.907 125.725L216.447 135.257L218.539 131.847L202.999 122.315L200.907 125.725Z" fill="black"/>
<path d="M237.108 130.192L251.3 139.658L265.12 130.247L251.3 120.585L242.646 126.391" stroke="black" stroke-width="3.7" stroke-linecap="round" stroke-linejoin="round"/>
<path d="M265.12 130.325V146.636L251.298 156.612L236.938 146.636V130.122" stroke="black" stroke-width="3.7" stroke-linecap="round" stroke-linejoin="round"/>
<path d="M251.301 140.332V156.612" stroke="black" stroke-width="3.7" stroke-linecap="round" stroke-linejoin="round"/>
<path fill-rule="evenodd" clip-rule="evenodd" d="M300.055 140.136L300.056 140.136C300.837 140.307 301.377 140.498 301.704 140.696C301.988 140.874 302.116 141.106 302.116 141.42C302.116 141.727 302.038 141.964 301.897 142.151C301.755 142.339 301.53 142.499 301.198 142.618C300.85 142.741 300.376 142.809 299.765 142.809C298.689 142.809 297.954 142.465 297.593 141.755C297.333 141.242 296.836 140.712 296.142 140.712C295.613 140.712 295.112 140.934 294.787 141.294C294.456 141.66 294.305 142.176 294.515 142.714C294.77 143.368 295.187 143.925 295.758 144.382L295.759 144.383C296.781 145.195 298.163 145.583 299.869 145.583C301.542 145.583 302.88 145.188 303.842 144.358C304.802 143.528 305.288 142.475 305.288 141.22C305.288 140.009 304.878 139.045 304.031 138.378C303.492 137.953 302.717 137.63 301.732 137.395L299.532 136.866C298.676 136.663 298.165 136.495 297.949 136.37L297.945 136.368C297.782 136.276 297.672 136.17 297.602 136.052C297.533 135.935 297.493 135.79 297.493 135.608C297.493 135.21 297.649 134.917 297.976 134.695C298.32 134.463 298.804 134.331 299.454 134.331C300.347 134.331 301.128 134.626 301.487 135.234C301.766 135.707 302.252 136.289 302.962 136.289C303.485 136.289 303.975 136.065 304.291 135.707C304.612 135.342 304.752 134.831 304.539 134.304C304.27 133.638 303.84 133.085 303.254 132.648C302.248 131.888 301.037 131.514 299.635 131.514C297.982 131.514 296.676 131.902 295.77 132.727C294.874 133.541 294.424 134.572 294.424 135.798C294.424 137.127 294.886 138.152 295.845 138.808C296.404 139.196 297.373 139.532 298.704 139.833L300.055 140.136Z" fill="black"/>
<path d="M301.286 130.853C301.286 129.887 300.502 129.103 299.536 129.103C298.569 129.103 297.786 129.887 297.786 130.853L301.286 130.853ZM297.786 132.573C297.786 133.539 298.569 134.323 299.536 134.323C300.502 134.323 301.286 133.539 301.286 132.573L297.786 132.573ZM297.786 130.853L297.786 132.573L301.286 132.573L301.286 130.853L297.786 130.853Z" fill="black"/>
<path d="M301.286 145C301.286 144.034 300.502 143.25 299.536 143.25C298.569 143.25 297.786 144.034 297.786 145L301.286 145ZM297.786 146.243C297.786 147.21 298.569 147.993 299.536 147.993C300.502 147.993 301.286 147.21 301.286 146.243L297.786 146.243ZM297.786 145L297.786 146.243L301.286 146.243L301.286 145L297.786 145Z" fill="black"/>
<path d="M285.612 129.533C282.364 134.637 281.998 141.33 285.232 146.931C289.862 154.951 300.116 157.698 308.135 153.068C316.154 148.438 318.902 138.184 314.272 130.165C309.388 121.705 298.039 119.298 290.229 124.913" stroke="black" stroke-width="3.7" stroke-linecap="round" stroke-linejoin="round"/>
<path d="M62.0312 149.502C56.5768 172.842 60.7913 183.519 79.3867 194.196C64.2624 191.464 56.1208 188.682 50.3779 181.036C40.7084 168.162 44.4274 149.502 40.7084 142.302C36.9893 135.101 24.6998 126.112 17.6502 122.19C8.89663 117.319 7.91438 103.498 20.3112 106.229C10.2596 97.8745 -4.66414 70.792 12.4435 68.5574C29.5512 66.3227 27.5677 83.9518 36.7414 102.822C45.915 121.693 67.4856 126.162 62.0312 149.502Z" fill="white" stroke="black" stroke-width="4" stroke-linecap="round" stroke-linejoin="round"/>
<path d="M4.35449 250.046L339.265 250.046" stroke="black" stroke-width="4" stroke-linecap="round" stroke-linejoin="round"/>
<path d="M337.67 174.328L105.878 174.328" stroke="black" stroke-width="4" stroke-linecap="round" stroke-linejoin="round"/>
<path d="M121.961 156.914L146.781 156.914" stroke="black" stroke-width="4" stroke-linecap="round" stroke-linejoin="round"/>
<path d="M121.961 149.112L134.372 149.112" stroke="black" stroke-width="4" stroke-linecap="round" stroke-linejoin="round"/>
<path d="M162.824 54.5L162.824 173.399" stroke="black" stroke-width="4" stroke-linecap="round" stroke-linejoin="round"/>
<path d="M338.509 66.4436C338.509 59.2639 332.688 53.4436 325.509 53.4436H118.039C110.86 53.4436 105.039 59.2639 105.039 66.4436V189.603C105.039 196.783 110.86 202.603 118.039 202.603H325.509C332.688 202.603 338.509 196.783 338.509 189.603V66.4436Z" stroke="black" stroke-width="4"/>
<circle r="32" transform="matrix(-1 0 0 1 327 54)" fill="black"/>
<path d="M221.301 193.196C221.301 193.748 220.85 194.205 220.306 194.108C219.903 194.036 219.508 193.921 219.129 193.764C218.44 193.478 217.814 193.06 217.287 192.533C216.76 192.006 216.342 191.38 216.057 190.692C215.771 190.003 215.624 189.265 215.624 188.519C215.624 187.774 215.771 187.036 216.057 186.347C216.342 185.658 216.76 185.032 217.287 184.505C217.814 183.978 218.44 183.56 219.129 183.275C219.508 183.117 219.903 183.002 220.306 182.931C220.85 182.834 221.301 183.29 221.301 183.843L221.301 188.519L221.301 193.196Z" fill="black"/>
<circle r="17.0297" transform="matrix(-1 0 0 1 134.26 83.5031)" fill="black"/>
<path d="M141.461 91.2143C141.461 92.098 140.745 92.8143 139.861 92.8143C138.977 92.8143 138.261 92.098 138.261 91.2143L141.461 91.2143ZM130.537 91.2143C130.537 92.098 129.821 92.8143 128.937 92.8143C128.053 92.8143 127.337 92.098 127.337 91.2143L130.537 91.2143ZM136.053 89.0064L132.745 89.0064L132.745 85.8064L136.053 85.8064L136.053 89.0064ZM138.261 91.2143C138.261 89.9949 137.273 89.0064 136.053 89.0064L136.053 85.8064C139.04 85.8064 141.461 88.2276 141.461 91.2143L138.261 91.2143ZM127.337 91.2143C127.337 88.2276 129.758 85.8064 132.745 85.8064L132.745 89.0064C131.526 89.0064 130.537 89.9949 130.537 91.2143L127.337 91.2143Z" fill="white"/>
<circle r="2.92814" transform="matrix(-1 0 0 1 134.399 79.5667)" stroke="white" stroke-width="3.2"/>
<path d="M186.666 240.975L263.788 240.975C266.293 240.975 268.324 243.006 268.324 245.511V245.511C268.324 248.016 266.293 250.047 263.788 250.047L243.338 250.047" stroke="black" stroke-width="4" stroke-linecap="round" stroke-linejoin="round"/>
<path d="M181.33 203.972L165.18 249.004" stroke="black" stroke-width="4" stroke-linecap="round" stroke-linejoin="round"/>
<path d="M246.901 203.972L234.001 239.942" stroke="black" stroke-width="4" stroke-linecap="round" stroke-linejoin="round"/>
<path d="M314 59.794L314 64.5C314 65.8807 315.119 67 316.5 67L327 67L337.5 67C338.881 67 340 65.8807 340 64.5L340 51.5C340 50.1193 338.881 49 337.5 49L316.5 49C315.119 49 314 50.1193 314 51.5L314 59.794Z" stroke="white" stroke-width="3" stroke-linecap="round" stroke-linejoin="round"/>
<path d="M332 49L332 42C332 39.2386 329.761 37 327 37V37C324.239 37 322 39.2386 322 42L322 43" stroke="white" stroke-width="3" stroke-linecap="round" stroke-linejoin="round"/>
<path d="M323 57.4231L326.048 60.5L331 55.5" stroke="white" stroke-width="3" stroke-linecap="round" stroke-linejoin="round"/>
</svg>
