<svg width="136" height="132" viewBox="0 0 136 132" fill="none" xmlns="http://www.w3.org/2000/svg">
<g clip-path="url(#clip0_990_2321)">
<path d="M39.1174 92.2333L130.391 92.2333" stroke="black" stroke-width="1.77806" stroke-linecap="round" stroke-linejoin="round"/>
<path d="M7.75073 92.2333H16.0316" stroke="black" stroke-width="1.77806" stroke-linecap="round" stroke-linejoin="round"/>
<path d="M63.4451 53.923H134.537" stroke="black" stroke-width="1.77806" stroke-linecap="round" stroke-linejoin="round"/>
<path d="M28.3684 53.923H40.4368" stroke="black" stroke-width="1.77806" stroke-linecap="round" stroke-linejoin="round"/>
<path d="M134.901 53.923L130.349 92.2333" stroke="black" stroke-width="1.77806" stroke-linecap="round" stroke-linejoin="round"/>
<path d="M28.3684 53.923L25.4595 78.399" stroke="black" stroke-width="1.77806" stroke-linecap="round" stroke-linejoin="round"/>
<path d="M111.624 92.2333L106.817 118.997" stroke="black" stroke-width="1.77806" stroke-linecap="round" stroke-linejoin="round"/>
<path d="M111.472 92.2333L109.284 74.7295" stroke="black" stroke-width="1.77806" stroke-linecap="round" stroke-linejoin="round"/>
<path d="M7.47998 92.2333L5.29224 74.7295" stroke="black" stroke-width="1.77806" stroke-linecap="round" stroke-linejoin="round"/>
<path d="M130.391 118.997V92.2333" stroke="black" stroke-width="1.77806" stroke-linecap="round" stroke-linejoin="round"/>
<path d="M7.3706 92.2333L2.56055 118.997" stroke="black" stroke-width="1.77806" stroke-linecap="round" stroke-linejoin="round"/>
<path d="M46.5322 50.5423L47.2749 45.4954" stroke="black" stroke-width="1.77806" stroke-linecap="round" stroke-linejoin="round"/>
<path d="M51.0391 78.2656C43.2029 77.7326 26.9966 79.803 26.4548 84.19C26.0693 87.2875 30.7986 111.938 30.7986 111.938H34.4212L24.6436 119H43.3449L38.0447 87.4952" stroke="black" stroke-width="1.77806" stroke-linecap="round" stroke-linejoin="round"/>
<path d="M50.3471 41.191C43.3246 41.8823 41.0646 48.1936 39.7386 59.4202C38.4125 70.6469 36.2456 75.765 36.2456 75.765L44.8866 74.6317H65.1299C65.1299 74.6317 66.4925 80.7336 67.2868 82.9205H73.7609C73.7609 82.9205 71.3514 53.4745 67.5427 47.027C63.734 40.5795 58.3001 41.1877 58.3001 41.1877L50.3471 41.191Z" fill="black" stroke="black" stroke-width="1.77806" stroke-linecap="round" stroke-linejoin="round"/>
<path d="M31.7857 119H14.0051L23.7828 111.938H20.1602C20.1602 111.938 15.4309 87.2875 15.8131 84.19C16.3581 79.803 37.2893 75.2167 44.8934 74.6317C44.8934 74.6317 44.0326 55.1828 45.6312 50.8557" stroke="black" stroke-width="1.77806" stroke-linecap="round" stroke-linejoin="round"/>
<path d="M81.8391 91.991L72.8338 81.7573C72.8338 81.7573 72.7008 76.8718 72.1956 73.1827C69.7662 55.4653 71.0291 48.5027 63.9302 43.1552" stroke="black" stroke-width="1.77806" stroke-linecap="round" stroke-linejoin="round"/>
<path d="M62.4014 51.4539C62.4014 51.4539 64.4641 81.6479 70.6225 91.8842" stroke="black" stroke-width="1.77806" stroke-linecap="round" stroke-linejoin="round"/>
<path d="M50.5449 33.1856C52.4738 36.6609 56.5626 38.725 60.0985 36.3399C65.372 32.784 62.9609 10.6113 51.8374 15.9584C47.5898 18.0046 45.5652 22.727 50.5449 33.1856" stroke="black" stroke-width="1.77806" stroke-linecap="round" stroke-linejoin="round"/>
<path d="M49.2909 30.2843C49.2909 30.2843 56.3714 25.3738 56.7242 18.8259C56.7242 18.8259 59.4656 22.0719 62.2516 23.3546C62.6449 25.7589 63.3566 32.0599 61.7308 34.1997L67.856 33.8509C67.856 33.8509 63.3938 13.4228 54.5958 14.7128C43.8073 16.2959 43.1163 35.2597 43.1163 35.2597L51.302 34.7936L49.2909 30.2843Z" fill="black" stroke="black" stroke-width="1.77806" stroke-linecap="round" stroke-linejoin="round"/>
<path d="M52.4349 35.5505L51.644 40.4342" stroke="black" stroke-width="1.77806" stroke-linecap="round" stroke-linejoin="round"/>
<path d="M59.2349 36.8392L59.8447 40.4341" stroke="black" stroke-width="1.77806" stroke-linecap="round" stroke-linejoin="round"/>
<path d="M131.995 73.8405L105.658 73.8405" stroke="black" stroke-width="1.77806" stroke-linecap="round"/>
<path d="M25.7923 73.8405H1.66602" stroke="black" stroke-width="1.77806" stroke-linecap="round"/>
</g>
<defs>
<clipPath id="clip0_990_2321">
<rect width="135" height="132" fill="white" transform="translate(0.666016)"/>
</clipPath>
</defs>
</svg>
