<svg width="527" height="505" viewBox="0 0 527 505" fill="none" xmlns="http://www.w3.org/2000/svg">
<path d="M381.32 119.11L406.955 101.147L410.885 111.813L409.762 119.11H381.32Z" fill="black" stroke="black" stroke-width="4" stroke-linecap="round" stroke-linejoin="round"/>
<path d="M422.112 144.882C423.216 144.882 424.112 143.986 424.112 142.882C424.112 141.777 423.216 140.882 422.112 140.882L422.112 144.882ZM365.227 140.882C364.122 140.882 363.227 141.777 363.227 142.882C363.227 143.986 364.122 144.882 365.227 144.882L365.227 140.882ZM422.112 140.882L365.227 140.882L365.227 144.882L422.112 144.882L422.112 140.882Z" fill="black"/>
<path d="M382.842 119.46L382.842 135.677" stroke="black" stroke-width="4" stroke-linecap="round" stroke-linejoin="round"/>
<path d="M407.517 110.503L406.02 115.742L403.961 119.46H422.09C428.848 119.46 449.057 109.38 454.297 96.4314H413.33L406.394 101.521L407.517 110.503Z" fill="black" stroke="black" stroke-width="4" stroke-linecap="round" stroke-linejoin="round"/>
<path d="M385.07 70.4587H394.291L397.246 74.2762L399.104 76.6759L390.698 87.6739" stroke="black" stroke-width="4" stroke-linecap="round" stroke-linejoin="round"/>
<path d="M385.07 70.4587H375.85L371.036 76.6759L376.923 84.3776L379.443 87.6739" stroke="black" stroke-width="4" stroke-linecap="round" stroke-linejoin="round"/>
<path d="M366.048 119.11C364.332 116.003 363.356 112.431 363.356 108.631C363.356 96.6434 373.074 86.9253 385.062 86.9253C397.05 86.9253 406.768 96.6434 406.768 108.631C406.768 112.431 405.792 116.003 404.076 119.11" stroke="black" stroke-width="4" stroke-linecap="round" stroke-linejoin="round"/>
<path d="M404.076 119.11C405.792 116.004 406.768 112.432 406.768 108.631C406.768 106.216 406.374 103.893 405.646 101.722" stroke="white" stroke-width="4" stroke-linecap="round" stroke-linejoin="round"/>
<path d="M422.112 142.882V119.304H354V142.882" stroke="black" stroke-width="4" stroke-linecap="round" stroke-linejoin="round"/>
<path d="M504.125 142.897H323.457V339.959" stroke="black" stroke-width="4" stroke-linecap="round" stroke-linejoin="round"/>
<path d="M504.124 235.037H396.963V339.352" stroke="black" stroke-width="4" stroke-linecap="round" stroke-linejoin="round"/>
<path d="M9.66309 490.534H97.0095" stroke="black" stroke-width="4" stroke-linecap="round" stroke-linejoin="round"/>
<path d="M97.0098 490.534H504.125" stroke="black" stroke-width="4" stroke-linecap="round" stroke-linejoin="round"/>
<path d="M447.621 235.037L447.621 339.959" stroke="black" stroke-width="4" stroke-linecap="round" stroke-linejoin="round"/>
<path d="M345.621 355.459L345.621 415.188" stroke="black" stroke-width="4" stroke-linecap="round" stroke-linejoin="round"/>
<path d="M230.621 416.949L230.621 454.459" stroke="black" stroke-width="4" stroke-linecap="round" stroke-linejoin="round"/>
<path d="M119.906 416.949L119.906 490.534" stroke="black" stroke-width="4" stroke-linecap="round" stroke-linejoin="round"/>
<path d="M119.925 416.792H150.755" stroke="black" stroke-width="4" stroke-linecap="round"/>
<path d="M85.8313 322.173C66.2113 360.583 45.7812 490.533 45.7812 490.533H111.051C111.051 490.533 84.1913 476.183 72.3513 462.373C77.2513 439.453 122.621 322.173 122.621 322.173" stroke="black" stroke-width="4" stroke-linecap="round" stroke-linejoin="round"/>
<path d="M143.861 322.174C140.669 360.922 164.651 490.534 164.651 490.534H222.571C222.571 490.534 200.413 475.044 184.193 460.664C176.293 442.904 177.161 320.354 177.161 320.354" stroke="black" stroke-width="4" stroke-linecap="round" stroke-linejoin="round"/>
<path d="M81.0055 113.753C81.0055 116.203 87.5168 140.804 90.8668 179.954C94.2168 219.104 59.127 338.683 59.127 338.683H196.07C196.07 338.683 156.23 194.954 152.267 173.394C153.965 133.343 158.685 113.753 158.685 113.753C158.685 113.753 150.335 105.313 140.885 105.313H100.566C92.9355 105.313 81.0055 113.753 81.0055 113.753Z" fill="black" stroke="black" stroke-width="4" stroke-linecap="round" stroke-linejoin="round"/>
<path d="M80.4462 114.173C80.4462 114.173 62.1336 160.83 54.5036 198.42C46.8736 236.01 45.0572 270.043 42.3272 282.043C39.5972 294.043 41.2171 310.193 45.5971 311.463C48.7771 312.393 60.5072 269.513 60.5072 269.513L71.7769 204.061L93.4172 137.073" stroke="black" stroke-width="4" stroke-linecap="round" stroke-linejoin="round"/>
<path d="M154.433 110.762C167.153 117.572 189.812 160.182 189.812 160.182C189.812 160.182 242.482 180.342 252.812 186.342C263.142 192.342 276.812 215.762 270.522 215.762C264.232 215.762 248.462 200.502 240.832 196.142C233.202 191.782 191.832 191.242 178.712 179.252C165.592 167.262 145.102 120.998 145.102 120.998" stroke="black" stroke-width="4" stroke-linecap="round" stroke-linejoin="round"/>
<path d="M93.501 201.213L155.9 201.213" stroke="white" stroke-width="4" stroke-linecap="round" stroke-linejoin="round"/>
<path d="M247.232 183.522C248.302 179.022 247.852 175.372 245.782 174.372C243.712 173.372 240.382 175.372 237.442 179.212C236.178 180.871 235.086 182.653 234.182 184.532C232.749 187.385 231.819 190.464 231.432 193.632C231.132 196.772 231.762 199.152 233.372 199.932C235.302 200.862 238.152 199.292 240.852 196.142" stroke="black" stroke-width="4" stroke-linecap="round" stroke-linejoin="round"/>
<path d="M110.341 89.1147L106.481 103.331" stroke="black" stroke-width="4" stroke-linecap="round" stroke-linejoin="round"/>
<path d="M127.612 92.6606L128.857 105.841" stroke="black" stroke-width="4" stroke-linecap="round" stroke-linejoin="round"/>
<path d="M121.759 94.7062C131.622 93.7778 139.175 81.1579 138.496 65.9515C137.817 50.7451 126.411 35.5932 113.88 37.3819C101.35 39.1707 100.28 57.1894 101.582 68.9868C102.892 80.6209 111.543 95.6605 121.759 94.7062Z" stroke="black" stroke-width="4" stroke-linecap="round" stroke-linejoin="round"/>
<path d="M118.816 33.1767C118.816 33.1767 117.262 63.9958 101.594 68.988C100.576 85.1747 110.782 87.2386 107.305 96.093C103.864 101.054 92.452 101.315 89.5771 92.9191C75.9217 106.127 63.8901 86.7381 77.5967 75.4873C68.7906 70.8123 75.6398 53.9611 85.968 56.5703C82.489 51.3518 85.3157 40.3545 95.6311 40.3545C95.6312 32.4891 109.167 27.5596 118.816 33.1767Z" fill="black" stroke="black" stroke-width="4" stroke-linecap="round" stroke-linejoin="round"/>
<path d="M118.816 33.1766C117.548 38.1579 127.145 60.8379 141.676 62.4683C144.475 37.6199 120.084 28.1954 118.816 33.1766Z" fill="black" stroke="black" stroke-width="4" stroke-linecap="round" stroke-linejoin="round"/>
<path d="M128.923 96.9031L128.923 94.0541L135.187 85.871L138.988 72.0742C145.349 74.3874 145.47 83.0091 141.631 85.3753C148.423 94.5759 134.087 100.023 128.923 96.9031Z" fill="black" stroke="black" stroke-width="4" stroke-linecap="round"/>
<path d="M502.999 415.959L179.353 415.959" stroke="black" stroke-width="4" stroke-linecap="round" stroke-linejoin="round"/>
<path d="M210.201 415.959V341.459H472" stroke="black" stroke-width="4" stroke-linecap="round" stroke-linejoin="round"/>
</svg>
