<svg width="136" height="132" viewBox="0 0 136 132" fill="none" xmlns="http://www.w3.org/2000/svg">
<g clip-path="url(#clip0_990_2286)">
<path d="M134.467 35.5027H84.1272V87.369" stroke="black" stroke-width="1.78" stroke-linecap="round" stroke-linejoin="round"/>
<path d="M1.53711 127H24.5265" stroke="black" stroke-width="1.78" stroke-linecap="round" stroke-linejoin="round"/>
<path d="M21.7383 127H134.467" stroke="black" stroke-width="1.78" stroke-linecap="round" stroke-linejoin="round"/>
<path d="M30.5532 107.633L30.5532 127" stroke="black" stroke-width="1.78" stroke-linecap="round" stroke-linejoin="round"/>
<path d="M60.2561 87.369L60.2561 106.736" stroke="black" stroke-width="1.78" stroke-linecap="round" stroke-linejoin="round"/>
<path d="M30.5579 107.591H38.6722" stroke="black" stroke-width="1.78" stroke-linecap="round"/>
<path d="M46.542 107.591H134.467" stroke="black" stroke-width="1.78" stroke-linecap="round"/>
<path d="M60.2561 87.369L134.467 87.369" stroke="black" stroke-width="1.78" stroke-linecap="round"/>
<path d="M21.5846 82.6879C16.4206 92.7973 11.0435 127 11.0435 127H28.2224C28.2224 127 21.1529 123.223 18.0366 119.588C19.3263 113.556 31.2676 82.6879 31.2676 82.6879" stroke="black" stroke-width="1.78" stroke-linecap="round" stroke-linejoin="round"/>
<path d="M36.858 82.6878C36.0178 92.8862 42.3299 127 42.3299 127H57.5743C57.5743 127 51.7422 122.923 47.4731 119.138C45.3938 114.464 45.6225 82.2088 45.6225 82.2088" stroke="black" stroke-width="1.78" stroke-linecap="round" stroke-linejoin="round"/>
<path d="M20.3146 27.8319C20.3146 28.4768 22.0283 34.9515 22.91 45.2557C23.7917 55.5599 14.5562 87.0329 14.5562 87.0329H50.5992C50.5992 87.0329 40.1136 49.2038 39.0704 43.5291C39.5175 32.988 40.7598 27.8319 40.7598 27.8319C40.7598 27.8319 38.5621 25.6105 36.0748 25.6105H25.4627C23.4545 25.6105 20.3146 27.8319 20.3146 27.8319Z" fill="black" stroke="black" stroke-width="1.78" stroke-linecap="round" stroke-linejoin="round"/>
<path d="M20.1672 27.9424C20.1672 27.9424 15.3474 40.2225 13.3392 50.1161C11.331 60.0098 10.8529 68.9672 10.1344 72.1256C9.41585 75.2839 9.84222 79.5346 10.995 79.8689C11.832 80.1136 14.9193 68.8277 14.9193 68.8277L17.8855 51.6007L23.5812 33.9697" stroke="black" stroke-width="1.78" stroke-linecap="round" stroke-linejoin="round"/>
<path d="M39.6404 27.0446C42.9882 28.837 48.952 40.0519 48.952 40.0519C48.952 40.0519 62.8146 45.3579 65.5335 46.9371C68.2523 48.5163 71.8502 54.6804 70.1947 54.6804C68.5392 54.6804 64.3886 50.664 62.3804 49.5165C60.3722 48.3689 49.4837 48.2268 46.0305 45.0711C42.5773 41.9153 37.1843 29.7388 37.1843 29.7388" stroke="black" stroke-width="1.78" stroke-linecap="round" stroke-linejoin="round"/>
<path d="M23.6033 50.8512L40.0265 50.8512" stroke="#F5F3ED" stroke-width="1.78" stroke-linecap="round" stroke-linejoin="round"/>
<path d="M32.5811 22.2804L32.9088 25.7495" stroke="black" stroke-width="1.78" stroke-linecap="round" stroke-linejoin="round"/>
<path d="M31.0407 22.8187C33.6366 22.5743 35.6246 19.2528 35.4459 15.2505C35.2672 11.2482 32.2651 7.26025 28.9671 7.73103C25.6692 8.20182 25.3876 12.9443 25.7303 16.0494C26.075 19.1114 28.3519 23.0699 31.0407 22.8187Z" stroke="black" stroke-width="1.78" stroke-linecap="round" stroke-linejoin="round"/>
<path d="M30.2662 6.62436C30.2662 6.62436 29.8572 14.7359 25.7333 16.0498C25.4655 20.3101 28.1515 20.8534 27.2364 23.1838C26.3308 24.4895 23.3272 24.5582 22.5706 22.3485C18.9765 25.8247 15.8098 20.7216 19.4173 17.7604C17.0996 16.53 18.9023 12.0948 21.6206 12.7815C20.705 11.408 21.4489 8.51355 24.1639 8.51355C24.164 6.44339 27.7267 5.14594 30.2662 6.62436Z" fill="black" stroke="black" stroke-width="1.78" stroke-linecap="round" stroke-linejoin="round"/>
<path d="M30.2661 6.62426C29.9323 7.93532 32.4583 13.9047 36.283 14.3338C37.0196 7.79372 30.5999 5.3132 30.2661 6.62426Z" fill="black" stroke="black" stroke-width="1.78" stroke-linecap="round" stroke-linejoin="round"/>
<path d="M32.9263 23.397L32.9263 22.6471L34.5751 20.4933L35.5753 16.8621C37.2497 17.4709 37.2814 19.7401 36.2712 20.3629C38.0586 22.7845 34.2855 24.2182 32.9263 23.397Z" fill="black" stroke="black" stroke-width="1.78" stroke-linecap="round"/>
<path d="M110.093 36.3886C110.585 36.3886 110.983 35.9901 110.983 35.4986C110.983 35.0071 110.585 34.6086 110.093 34.6086L110.093 36.3886ZM95.1211 34.6086C94.6296 34.6086 94.2311 35.0071 94.2311 35.4986C94.2311 35.9901 94.6296 36.3886 95.1211 36.3886L95.1211 34.6086ZM110.093 34.6086L95.1211 34.6086L95.1211 36.3886L110.093 36.3886L110.093 34.6086Z" fill="black"/>
<path d="M100.837 14.3339H103.662L104.568 15.5036L105.137 16.239L102.561 19.609" stroke="black" stroke-width="1.78" stroke-linecap="round" stroke-linejoin="round"/>
<path d="M100.837 14.3338H98.0116L96.5365 16.2389L98.3404 18.5989L99.1127 19.609" stroke="black" stroke-width="1.78" stroke-linecap="round" stroke-linejoin="round"/>
<path d="M95.0081 29.242C94.4823 28.29 94.1831 27.1955 94.1831 26.031C94.1831 22.3576 97.161 19.3797 100.834 19.3797C104.508 19.3797 107.486 22.3576 107.486 26.031C107.486 27.1955 107.186 28.29 106.661 29.242" stroke="black" stroke-width="1.78" stroke-linecap="round" stroke-linejoin="round"/>
<path d="M110.093 35.4985V29.293H92.1663V35.4985" stroke="black" stroke-width="1.78" stroke-linecap="round" stroke-linejoin="round"/>
</g>
<defs>
<clipPath id="clip0_990_2286">
<rect width="135" height="132" fill="white" transform="translate(0.666016)"/>
</clipPath>
</defs>
</svg>
